<svg width="188" height="80" viewBox="0 0 188 80" fill="none" xmlns="http://www.w3.org/2000/svg">
<path fill-rule="evenodd" clip-rule="evenodd" d="M25.4418 17.232C25.5058 16.784 25.5378 16.528 25.5378 16.464V16.416V10.608H41.8578V6.816H35.0898L38.4018 2.16L35.3298 0L30.4338 6.816H16.0818L16.9938 6L11.8578 0L9.02581 2.496L12.7218 6.816H4.60981V10.608H21.7458V16.272C21.7458 16.368 21.6978 16.656 21.6018 17.136C21.5058 17.584 21.2978 18.176 20.9778 18.912H2.25781V22.656H18.8178C18.1778 23.52 17.3778 24.432 16.4178 25.392C15.4898 26.352 14.3538 27.312 13.0098 28.272C11.6978 29.2 10.1618 30.128 8.40181 31.056C6.67381 31.984 4.68981 32.848 2.44981 33.648L3.74581 37.2C6.65781 36.144 9.18581 34.992 11.3298 33.744C13.5058 32.496 15.3778 31.248 16.9458 30C18.5138 28.72 19.8098 27.456 20.8338 26.208C21.8578 24.96 22.6898 23.776 23.3298 22.656H44.2098V18.912H25.0098C25.2338 18.208 25.3778 17.648 25.4418 17.232ZM43.7298 34.032L27.6978 24.192L25.7298 27.408L41.7618 37.248L43.7298 34.032ZM92.2578 15.072H72.9618V4.944H87.9858V1.152H54.0498V4.944H69.1698V15.072H49.8258V18.816H69.1698V32.976C69.1698 33.36 68.9938 33.552 68.6418 33.552H60.4818V37.296H68.6418C69.8258 37.296 70.8338 36.88 71.6658 36.048C72.5298 35.216 72.9618 34.192 72.9618 32.976V18.816H92.2578V15.072ZM140.882 30.432L136.13 37.296L134.594 36.384C134.53 36.352 134.29 36.192 133.874 35.904C133.458 35.616 132.93 35.216 132.29 34.704C131.682 34.192 130.994 33.552 130.226 32.784C129.49 32.016 128.77 31.136 128.066 30.144C126.85 31.232 125.554 32.336 124.178 33.456C122.802 34.576 121.33 35.68 119.762 36.768L117.602 33.648C119.234 32.528 120.738 31.392 122.114 30.24C123.522 29.088 124.834 27.952 126.05 26.832C125.474 25.616 124.994 24.288 124.61 22.848C124.258 21.408 124.082 19.856 124.082 18.192V15.264H112.034V20.736L117.266 18.72L118.61 22.272L112.034 24.768V33.12C112.034 34.336 111.618 35.36 110.786 36.192C109.954 37.024 108.93 37.44 107.714 37.44H99.8418V33.696H107.714C108.098 33.696 108.29 33.504 108.29 33.12V26.208L100.418 29.232L99.0738 25.68L108.29 22.176V15.264H98.1138V11.472H108.29V5.904C107.138 6.16 105.938 6.4 104.69 6.624C103.442 6.816 102.146 6.992 100.802 7.152L100.322 3.408C102.434 3.152 104.466 2.832 106.418 2.448C108.37 2.064 110.098 1.696 111.602 1.344C113.106 0.959999 114.306 0.639998 115.202 0.383998L116.594 0L117.698 3.6C117.634 3.632 117.09 3.792 116.066 4.08C115.042 4.368 113.698 4.704 112.034 5.088V11.472H124.082V0.432H127.826V11.472H140.786V15.264H127.826V18.192C127.826 19.28 127.922 20.304 128.114 21.264C128.338 22.224 128.626 23.136 128.978 24C130.738 22.176 132.082 20.672 133.01 19.488C133.97 18.304 134.466 17.696 134.498 17.664L137.522 19.92C137.49 19.984 137.314 20.224 136.994 20.64C136.674 21.024 136.226 21.552 135.65 22.224C135.106 22.896 134.418 23.696 133.586 24.624C132.786 25.52 131.874 26.48 130.85 27.504C131.586 28.56 132.338 29.488 133.106 30.288C133.874 31.056 134.546 31.664 135.122 32.112L137.81 28.272L140.882 30.432ZM132.482 0.959999L139.058 7.536L136.418 10.224L129.794 3.6L132.482 0.959999ZM161.762 8.16H157.97V37.392H161.762V8.16ZM156.098 3.888C156.706 2.64 157.042 1.952 157.106 1.824L153.698 0.24C153.698 0.271999 153.474 0.735999 153.026 1.632C152.578 2.496 151.954 3.584 151.154 4.896C150.386 6.208 149.442 7.648 148.322 9.216C147.202 10.784 145.97 12.256 144.626 13.632L147.314 16.272C147.858 15.696 148.386 15.104 148.898 14.496C149.442 13.888 149.954 13.264 150.434 12.624V37.44H154.226V8.304H153.506C154.626 6.576 155.49 5.104 156.098 3.888ZM187.682 2.448H183.89V3.12H169.49V6.912H183.89V32.976C183.89 33.136 183.842 33.264 183.746 33.36C183.65 33.488 183.522 33.552 183.362 33.552H176.882V37.296H183.362C184.546 37.296 185.554 36.88 186.386 36.048C187.25 35.216 187.682 34.192 187.682 32.976V2.448ZM168.53 7.872L162.914 0.432L159.89 2.688L165.506 10.128L168.53 7.872ZM96.6453 78.1598C96.7773 78.1745 96.902 78.1818 97.0193 78.1818C97.5766 78.1818 98.1266 78.1011 98.6693 77.9398C99.2266 77.7931 99.7326 77.5731 100.187 77.2798C100.642 76.9865 101.023 76.6198 101.331 76.1798C101.654 75.7398 101.867 75.2338 101.969 74.6618C102.057 74.1778 102.065 73.6645 101.991 73.1218C101.933 72.5791 101.72 72.0511 101.353 71.5378C101.001 71.0098 100.466 70.5185 99.7473 70.0638C99.0433 69.6091 98.09 69.2205 96.8873 68.8978C96.3446 68.7511 95.868 68.5385 95.4573 68.2598C95.0466 67.9665 94.7386 67.6365 94.5333 67.2698C94.2546 66.7711 94.2033 66.2211 94.3793 65.6198C94.5406 65.1065 94.834 64.6958 95.2593 64.3878C95.6993 64.0798 96.2273 63.9111 96.8433 63.8818C97.1513 63.8671 97.4813 63.9038 97.8333 63.9918C98.2 64.0651 98.552 64.1971 98.8893 64.3878C99.2266 64.5785 99.542 64.8351 99.8353 65.1578C100.143 65.4805 100.393 65.8838 100.583 66.3678L102.189 65.7298C101.925 65.0845 101.588 64.5345 101.177 64.0798C100.767 63.6105 100.312 63.2365 99.8133 62.9578C99.3293 62.6645 98.8233 62.4518 98.2953 62.3198C97.7673 62.1878 97.2613 62.1291 96.7773 62.1438C95.7946 62.1878 94.944 62.4738 94.2253 63.0018C93.5066 63.5151 93.008 64.2118 92.7293 65.0918C92.392 66.1478 92.4873 67.1525 93.0153 68.1058C93.338 68.6925 93.7926 69.1985 94.3793 69.6238C94.9806 70.0491 95.67 70.3645 96.4473 70.5698C97.4153 70.8191 98.1633 71.1051 98.6913 71.4278C99.234 71.7505 99.63 72.0805 99.8793 72.4178C100.129 72.7551 100.268 73.0925 100.297 73.4298C100.327 73.7671 100.319 74.0751 100.275 74.3538C100.202 74.7351 100.041 75.0725 99.7913 75.3658C99.542 75.6445 99.234 75.8718 98.8673 76.0478C98.5153 76.2238 98.1266 76.3411 97.7013 76.3998C97.2906 76.4585 96.8873 76.4658 96.4913 76.4218C94.9513 76.2311 93.9613 75.2558 93.5213 73.4958L91.8493 73.9138C92.04 74.6911 92.304 75.3365 92.6413 75.8498C92.9786 76.3778 93.3453 76.8031 93.7413 77.1258C94.152 77.4485 94.5773 77.6831 95.0173 77.8298C95.472 77.9911 95.8973 78.0938 96.2933 78.1378C96.4106 78.1525 96.528 78.1598 96.6453 78.1598ZM32.5997 77.1038C33.3477 77.4998 34.1397 77.6978 34.9757 77.6978C35.797 77.6978 36.5744 77.4998 37.3077 77.1038C38.0557 76.7225 38.7157 76.1578 39.2877 75.4098C39.8304 74.7058 40.241 73.9138 40.5197 73.0338C40.813 72.1391 40.9597 71.2005 40.9597 70.2178C40.9597 69.2351 40.813 68.2965 40.5197 67.4018C40.241 66.5071 39.8304 65.7078 39.2877 65.0038C38.7157 64.2558 38.0557 63.6911 37.3077 63.3098C36.5744 62.9138 35.797 62.7158 34.9757 62.7158C34.1397 62.7158 33.3477 62.9138 32.5997 63.3098C31.8664 63.6911 31.2137 64.2558 30.6417 65.0038C30.099 65.7078 29.681 66.5071 29.3877 67.4018C29.109 68.2965 28.9697 69.2351 28.9697 70.2178C28.9697 71.2005 29.109 72.1391 29.3877 73.0338C29.681 73.9138 30.099 74.7058 30.6417 75.4098C31.2137 76.1578 31.8664 76.7225 32.5997 77.1038ZM33.3037 64.9158C33.8317 64.6078 34.389 64.4538 34.9757 64.4538C35.5624 64.4538 36.1124 64.6078 36.6257 64.9158C37.1537 65.2091 37.6084 65.6198 37.9897 66.1478C38.371 66.6611 38.6717 67.2698 38.8917 67.9738C39.1264 68.6778 39.2437 69.4258 39.2437 70.2178C39.2437 71.0098 39.1264 71.7578 38.8917 72.4618C38.6717 73.1511 38.371 73.7598 37.9897 74.2878C37.6084 74.8011 37.1537 75.2045 36.6257 75.4978C36.1124 75.8058 35.5624 75.9598 34.9757 75.9598C34.389 75.9598 33.8317 75.8058 33.3037 75.4978C32.7904 75.2045 32.3357 74.8011 31.9397 74.2878C31.5584 73.7598 31.2504 73.1511 31.0157 72.4618C30.7957 71.7578 30.6857 71.0098 30.6857 70.2178C30.6857 69.4258 30.7957 68.6778 31.0157 67.9738C31.2504 67.2698 31.5584 66.6611 31.9397 66.1478C32.3357 65.6198 32.7904 65.2091 33.3037 64.9158ZM11.792 77.9618L9.99406 73.4298H3.42919L1.606 78.0058L0 77.3678L5.1102 64.5418H4.796V62.8038H7.634L13.398 77.3238L11.792 77.9618ZM6.71866 65.1736L9.30456 71.6918H4.12166L6.71866 65.1736ZM22.1409 77.9618H16.1789V64.5418H15.6289V62.8038H21.4149C22.0456 62.8038 22.6396 62.9138 23.1969 63.1338C23.7689 63.3538 24.2603 63.6545 24.6709 64.0358C25.0816 64.4171 25.4043 64.8645 25.6389 65.3778C25.8883 65.8911 26.0129 66.4411 26.0129 67.0278C26.0129 67.6145 25.8883 68.1645 25.6389 68.6778C25.4043 69.1911 25.0816 69.6385 24.6709 70.0198C24.6272 70.0604 24.5826 70.1 24.5371 70.1388C24.8439 70.3154 25.1232 70.5251 25.3749 70.7678C25.8003 71.1491 26.1303 71.5965 26.3649 72.1098C26.6143 72.6231 26.7389 73.1658 26.7389 73.7378C26.7389 74.3245 26.6143 74.8745 26.3649 75.3878C26.1303 75.9011 25.8003 76.3485 25.3749 76.7298C24.9643 77.1111 24.4803 77.4118 23.9229 77.6318C23.3656 77.8518 22.7716 77.9618 22.1409 77.9618ZM21.4149 64.5418H17.9169V69.5138H21.4149C21.8109 69.5138 22.1849 69.4478 22.5369 69.3158C22.8889 69.1838 23.1896 69.0078 23.4389 68.7878C23.7029 68.5678 23.9083 68.3111 24.0549 68.0178C24.2163 67.7098 24.2969 67.3798 24.2969 67.0278C24.2969 66.6905 24.2163 66.3751 24.0549 66.0818C23.9083 65.7738 23.7029 65.5098 23.4389 65.2898C23.1896 65.0551 22.8889 64.8718 22.5369 64.7398C22.1849 64.6078 21.8109 64.5418 21.4149 64.5418ZM21.4149 71.2518H17.9169V76.2458H22.1409C22.5369 76.2458 22.9036 76.1798 23.2409 76.0478C23.5929 75.9158 23.9009 75.7325 24.1649 75.4978C24.4289 75.2778 24.6343 75.0211 24.7809 74.7278C24.9276 74.4198 25.0009 74.0898 25.0009 73.7378C25.0009 73.4005 24.9276 73.0851 24.7809 72.7918C24.6343 72.4838 24.4289 72.2198 24.1649 71.9998C23.9009 71.7651 23.5929 71.5818 23.2409 71.4498C22.9036 71.3178 22.5369 71.2518 22.1409 71.2518H21.4149ZM49.6736 77.8958C48.9256 77.8958 48.2143 77.7711 47.5396 77.5218C46.8796 77.2871 46.3003 76.9571 45.8016 76.5318C45.3029 76.1211 44.9069 75.6371 44.6136 75.0798C44.3349 74.5078 44.1956 73.8991 44.1956 73.2538V64.5418H43.6236V62.8038H45.9336V73.2538C45.9336 73.6498 46.0289 74.0311 46.2196 74.3978C46.4249 74.7498 46.6963 75.0578 47.0336 75.3218C47.3709 75.5858 47.7669 75.7911 48.2216 75.9378C48.6763 76.0991 49.1603 76.1798 49.6736 76.1798C50.1869 76.1798 50.6709 76.0991 51.1256 75.9378C51.5803 75.7911 51.9763 75.5858 52.3136 75.3218C52.6509 75.0578 52.9149 74.7498 53.1056 74.3978C53.3109 74.0311 53.4136 73.6498 53.4136 73.2538V62.7818H55.1296V73.2538C55.1296 73.8991 54.9829 74.5078 54.6896 75.0798C54.4109 75.6371 54.0223 76.1211 53.5236 76.5318C53.0396 76.9571 52.4603 77.2871 51.7856 77.5218C51.1256 77.7711 50.4216 77.8958 49.6736 77.8958ZM62.4479 77.7638H64.1859V64.4538H69.0259V62.7378H57.6079V64.4538H62.4479V77.7638ZM84.113 77.8958C83.365 77.8958 82.6537 77.7711 81.979 77.5218C81.319 77.2871 80.7397 76.9571 80.241 76.5318C79.7424 76.1211 79.3464 75.6371 79.053 75.0798C78.7744 74.5078 78.635 73.8991 78.635 73.2538V64.5418H78.063V62.8038H80.373V73.2538C80.373 73.6498 80.4684 74.0311 80.659 74.3978C80.8644 74.7498 81.1357 75.0578 81.473 75.3218C81.8104 75.5858 82.2064 75.7911 82.661 75.9378C83.1157 76.0991 83.5997 76.1798 84.113 76.1798C84.6264 76.1798 85.1104 76.0991 85.565 75.9378C86.0197 75.7911 86.4157 75.5858 86.753 75.3218C87.0904 75.0578 87.3544 74.7498 87.545 74.3978C87.7504 74.0311 87.853 73.6498 87.853 73.2538V62.7818H89.569V73.2538C89.569 73.8991 89.4224 74.5078 89.129 75.0798C88.8504 75.6371 88.4617 76.1211 87.963 76.5318C87.479 76.9571 86.8997 77.2871 86.225 77.5218C85.565 77.7711 84.861 77.8958 84.113 77.8958Z" fill="white"/>
</svg>
