<svg width="289" height="80" viewBox="0 0 289 80" fill="none" xmlns="http://www.w3.org/2000/svg">
<g clip-path="url(#clip0)">
<path fill-rule="evenodd" clip-rule="evenodd" d="M57.343 18.616V12.088H88.111C89.327 12.088 90.351 11.672 91.183 10.84C92.015 9.976 92.431 8.952 92.431 7.768V1H88.687V1.912H53.551V18.616C53.551 21.4 53.391 23.928 53.071 26.2C52.751 28.472 52.399 30.424 52.015 32.056C51.6311 33.688 51.2631 34.952 50.911 35.848C50.591 36.744 50.431 37.208 50.431 37.24L52.159 37.96L53.935 38.68C53.967 38.584 54.159 38.04 54.511 37.048C54.863 36.088 55.247 34.728 55.663 32.968C56.079 31.24 56.463 29.16 56.815 26.728C57.167 24.296 57.343 21.592 57.343 18.616ZM57.343 8.296V5.704H88.687V7.768C88.687 7.928 88.623 8.056 88.495 8.152C88.399 8.248 88.271 8.296 88.111 8.296H57.343ZM92.815 26.872H89.071V27.544H77.263V26.776H85.951C87.167 26.776 88.191 26.36 89.023 25.528C89.855 24.664 90.271 23.64 90.271 22.456V17.752H86.479V18.472H77.263V17.512H80.143C81.583 17.512 82.959 17.432 84.271 17.272C85.5831 17.112 86.735 16.936 87.727 16.744C88.751 16.552 89.551 16.376 90.127 16.216C90.735 16.024 91.071 15.928 91.135 15.928L90.031 12.328L89.215 12.568C88.6711 12.696 87.935 12.856 87.007 13.048C86.111 13.208 85.071 13.368 83.887 13.528C82.703 13.656 81.455 13.72 80.143 13.72H59.071V17.512H73.519V18.472H60.175V26.776H73.519V27.544H58.447V38.248H62.239V31.336H73.519V33.256L64.8311 33.496L64.927 37.288L80.719 36.808L81.151 37.96L84.703 36.664L82.735 31.336H89.071V33.976C89.071 34.328 88.879 34.504 88.495 34.504H84.847V38.296H88.495C89.711 38.296 90.735 37.88 91.567 37.048C92.399 36.216 92.815 35.192 92.815 33.976V26.872ZM77.263 22.984V22.264H86.479V22.456C86.479 22.808 86.303 22.984 85.951 22.984H77.263ZM73.519 22.264V22.984H63.967V22.264H73.519ZM81.775 31.336L79.087 32.296L79.375 33.064L77.263 33.16V31.336H81.775ZM45.439 1.528H2.62305V5.32H19.903V38.248H23.695V5.32H45.439V1.528ZM26.911 15.592L25.039 18.904L40.543 27.784L42.4151 24.52L26.911 15.592ZM132.415 5.608H110.383V1.816H134.527L141.631 13.384L138.415 15.4L132.415 5.608ZM109.471 3.016C108.735 4.712 107.919 6.328 107.023 7.864C106.159 9.368 105.327 10.712 104.527 11.896C103.759 13.08 103.103 14.04 102.559 14.776C102.015 15.48 101.727 15.864 101.695 15.928L98.719 13.576C98.719 13.544 98.975 13.192 99.487 12.52C99.999 11.848 100.623 10.968 101.359 9.88C102.095 8.76 102.879 7.48 103.711 6.04C104.543 4.568 105.295 3.048 105.967 1.48L109.471 3.016ZM111.679 16.408V34.216H120.895V10.792H124.639V19.288H136.447V23.08H124.639V34.216H141.343V38.008H99.007V34.216H107.887V16.408H111.679ZM153.679 26.68L157.231 25.432L151.183 8.152L147.631 9.4L153.679 26.68ZM182.911 26.68L188.815 9.448L185.215 8.248L179.359 25.432L182.911 26.68ZM189.583 34.36H177.007V1.096H173.215V34.36H163.471V1.096H159.679V34.36H146.719V38.104H189.583V34.36ZM5.796 78.9684C5.928 78.9831 6.05267 78.9904 6.17 78.9904C6.72733 78.9904 7.27733 78.9097 7.82 78.7484C8.37733 78.6017 8.88333 78.3817 9.338 78.0884C9.79267 77.7951 10.174 77.4284 10.482 76.9884C10.8047 76.5484 11.0173 76.0424 11.12 75.4704C11.208 74.9864 11.2153 74.4731 11.142 73.9304C11.0833 73.3877 10.8707 72.8597 10.504 72.3464C10.152 71.8184 9.61667 71.3271 8.898 70.8724C8.194 70.4177 7.24067 70.0291 6.038 69.7064C5.49533 69.5597 5.01867 69.3471 4.608 69.0684C4.19733 68.7751 3.88933 68.4451 3.684 68.0784C3.40533 67.5797 3.354 67.0297 3.53 66.4284C3.69133 65.9151 3.98467 65.5044 4.41 65.1964C4.85 64.8884 5.378 64.7197 5.994 64.6904C6.302 64.6757 6.632 64.7124 6.984 64.8004C7.35067 64.8737 7.70267 65.0057 8.04 65.1964C8.37733 65.3871 8.69267 65.6437 8.986 65.9664C9.294 66.2891 9.54333 66.6924 9.734 67.1764L11.34 66.5384C11.076 65.8931 10.7387 65.3431 10.328 64.8884C9.91733 64.4191 9.46267 64.0451 8.964 63.7664C8.48 63.4731 7.974 63.2604 7.446 63.1284C6.918 62.9964 6.412 62.9377 5.928 62.9524C4.94533 62.9964 4.09467 63.2824 3.376 63.8104C2.65733 64.3237 2.15867 65.0204 1.88 65.9004C1.54267 66.9564 1.638 67.9611 2.166 68.9144C2.48867 69.5011 2.94333 70.0071 3.53 70.4324C4.13133 70.8577 4.82067 71.1731 5.598 71.3784C6.566 71.6277 7.314 71.9137 7.842 72.2364C8.38467 72.5591 8.78067 72.8891 9.03 73.2264C9.27933 73.5637 9.41867 73.9011 9.448 74.2384C9.47733 74.5757 9.47 74.8837 9.426 75.1624C9.35267 75.5437 9.19133 75.8811 8.942 76.1744C8.69267 76.4531 8.38467 76.6804 8.018 76.8564C7.666 77.0324 7.27733 77.1497 6.852 77.2084C6.44133 77.2671 6.038 77.2744 5.642 77.2304C4.102 77.0397 3.112 76.0644 2.672 74.3044L1 74.7224C1.19067 75.4997 1.45467 76.1451 1.792 76.6584C2.12933 77.1864 2.496 77.6117 2.892 77.9344C3.30267 78.2571 3.728 78.4917 4.168 78.6384C4.62267 78.7997 5.048 78.9024 5.444 78.9464C5.56133 78.9611 5.67867 78.9684 5.796 78.9684ZM17.6844 78.3304C18.3591 78.5797 19.0704 78.7044 19.8184 78.7044C20.5664 78.7044 21.2704 78.5797 21.9304 78.3304C22.6051 78.0957 23.1844 77.7657 23.6684 77.3404C24.1671 76.9297 24.5558 76.4457 24.8344 75.8884C25.1278 75.3164 25.2744 74.7077 25.2744 74.0624V63.5904H23.5584V74.0624C23.5584 74.4584 23.4558 74.8397 23.2504 75.2064C23.0598 75.5584 22.7958 75.8664 22.4584 76.1304C22.1211 76.3944 21.7251 76.5997 21.2704 76.7464C20.8158 76.9077 20.3318 76.9884 19.8184 76.9884C19.3051 76.9884 18.8211 76.9077 18.3664 76.7464C17.9118 76.5997 17.5158 76.3944 17.1784 76.1304C16.8411 75.8664 16.5698 75.5584 16.3644 75.2064C16.1738 74.8397 16.0784 74.4584 16.0784 74.0624V63.6124H13.7684V65.3504H14.3404V74.0624C14.3404 74.7077 14.4798 75.3164 14.7584 75.8884C15.0518 76.4457 15.4478 76.9297 15.9464 77.3404C16.4451 77.7657 17.0244 78.0957 17.6844 78.3304ZM34.3307 78.7704H28.3687V65.3504H27.8187V63.6124H33.6047C34.2354 63.6124 34.8294 63.7224 35.3867 63.9424C35.9587 64.1624 36.45 64.4631 36.8607 64.8444C37.2714 65.2257 37.594 65.6731 37.8287 66.1864C38.078 66.6997 38.2027 67.2497 38.2027 67.8364C38.2027 68.4231 38.078 68.9731 37.8287 69.4864C37.594 69.9997 37.2714 70.4471 36.8607 70.8284C36.817 70.869 36.7724 70.9086 36.7269 70.9474C37.0337 71.124 37.313 71.3337 37.5647 71.5764C37.99 71.9577 38.32 72.4051 38.5547 72.9184C38.804 73.4317 38.9287 73.9744 38.9287 74.5464C38.9287 75.1331 38.804 75.6831 38.5547 76.1964C38.32 76.7097 37.99 77.1571 37.5647 77.5384C37.154 77.9197 36.67 78.2204 36.1127 78.4404C35.5554 78.6604 34.9614 78.7704 34.3307 78.7704ZM33.6047 65.3504H30.1067V70.3224H33.6047C34.0007 70.3224 34.3747 70.2564 34.7267 70.1244C35.0787 69.9924 35.3794 69.8164 35.6287 69.5964C35.8927 69.3764 36.098 69.1197 36.2447 68.8264C36.406 68.5184 36.4867 68.1884 36.4867 67.8364C36.4867 67.4991 36.406 67.1837 36.2447 66.8904C36.098 66.5824 35.8927 66.3184 35.6287 66.0984C35.3794 65.8637 35.0787 65.6804 34.7267 65.5484C34.3747 65.4164 34.0007 65.3504 33.6047 65.3504ZM33.6047 72.0604H30.1067V77.0544H34.3307C34.7267 77.0544 35.0934 76.9884 35.4307 76.8564C35.7827 76.7244 36.0907 76.5411 36.3547 76.3064C36.6187 76.0864 36.824 75.8297 36.9707 75.5364C37.1174 75.2284 37.1907 74.8984 37.1907 74.5464C37.1907 74.2091 37.1174 73.8937 36.9707 73.6004C36.824 73.2924 36.6187 73.0284 36.3547 72.8084C36.0907 72.5737 35.7827 72.3904 35.4307 72.2584C35.0934 72.1264 34.7267 72.0604 34.3307 72.0604H33.6047ZM44.7895 77.9124C45.5375 78.3084 46.3295 78.5064 47.1655 78.5064C47.9868 78.5064 48.7641 78.3084 49.4975 77.9124C50.2455 77.5311 50.9055 76.9664 51.4775 76.2184C52.0201 75.5144 52.4308 74.7224 52.7095 73.8424C53.0028 72.9477 53.1495 72.0091 53.1495 71.0264C53.1495 70.0437 53.0028 69.1051 52.7095 68.2104C52.4308 67.3157 52.0201 66.5164 51.4775 65.8124C50.9055 65.0644 50.2455 64.4997 49.4975 64.1184C48.7641 63.7224 47.9868 63.5244 47.1655 63.5244C46.3295 63.5244 45.5375 63.7224 44.7895 64.1184C44.0561 64.4997 43.4035 65.0644 42.8315 65.8124C42.2888 66.5164 41.8708 67.3157 41.5775 68.2104C41.2988 69.1051 41.1595 70.0437 41.1595 71.0264C41.1595 72.0091 41.2988 72.9477 41.5775 73.8424C41.8708 74.7224 42.2888 75.5144 42.8315 76.2184C43.4035 76.9664 44.0561 77.5311 44.7895 77.9124ZM45.4935 65.7244C46.0215 65.4164 46.5788 65.2624 47.1655 65.2624C47.7521 65.2624 48.3021 65.4164 48.8155 65.7244C49.3435 66.0177 49.7981 66.4284 50.1795 66.9564C50.5608 67.4697 50.8615 68.0784 51.0815 68.7824C51.3161 69.4864 51.4335 70.2344 51.4335 71.0264C51.4335 71.8184 51.3161 72.5664 51.0815 73.2704C50.8615 73.9597 50.5608 74.5684 50.1795 75.0964C49.7981 75.6097 49.3435 76.0131 48.8155 76.3064C48.3021 76.6144 47.7521 76.7684 47.1655 76.7684C46.5788 76.7684 46.0215 76.6144 45.4935 76.3064C44.9801 76.0131 44.5255 75.6097 44.1295 75.0964C43.7481 74.5684 43.4401 73.9597 43.2055 73.2704C42.9855 72.5664 42.8755 71.8184 42.8755 71.0264C42.8755 70.2344 42.9855 69.4864 43.2055 68.7824C43.4401 68.0784 43.7481 67.4697 44.1295 66.9564C44.5255 66.4284 44.9801 66.0177 45.4935 65.7244ZM57.9473 78.6824H56.2093V65.2624H55.6373V63.5464H61.4453C62.076 63.5464 62.67 63.6564 63.2273 63.8764C63.7847 64.0964 64.2687 64.3971 64.6794 64.7784C65.1047 65.1597 65.4347 65.6071 65.6693 66.1204C65.9187 66.6337 66.0433 67.1764 66.0433 67.7484C66.0433 68.2911 65.9407 68.8044 65.7353 69.2884C65.53 69.7577 65.244 70.1831 64.8773 70.5644C64.5107 70.9311 64.0853 71.2391 63.6013 71.4884C63.1173 71.7377 62.5893 71.8917 62.0173 71.9504L65.9113 77.7144L64.4813 78.6824L59.5533 71.4224V70.2564H61.4453C61.8413 70.2564 62.2153 70.1904 62.5673 70.0584C62.9193 69.9264 63.22 69.7504 63.4693 69.5304C63.7333 69.2957 63.9387 69.0317 64.0853 68.7384C64.2467 68.4304 64.3273 68.1004 64.3273 67.7484C64.3273 67.4111 64.2467 67.0957 64.0853 66.8024C63.9387 66.4944 63.7333 66.2304 63.4693 66.0104C63.22 65.7757 62.9193 65.5924 62.5673 65.4604C62.2153 65.3284 61.8413 65.2624 61.4453 65.2624H57.9473V78.6824ZM69.5226 78.7704H73.7466C74.5679 78.7704 75.3673 78.6237 76.1446 78.3304C76.9366 78.0517 77.6406 77.6557 78.2566 77.1424C78.5353 76.9077 78.8139 76.6144 79.0926 76.2624C79.3859 75.9104 79.6499 75.4924 79.8846 75.0084C80.1193 74.5244 80.3099 73.9671 80.4566 73.3364C80.6179 72.7057 80.6986 71.9944 80.6986 71.2024C80.6986 70.3957 80.6179 69.6771 80.4566 69.0464C80.3099 68.4157 80.1193 67.8584 79.8846 67.3744C79.6499 66.8904 79.3859 66.4797 79.0926 66.1424C78.8139 65.7904 78.5353 65.4971 78.2566 65.2624C77.6406 64.7344 76.9366 64.3311 76.1446 64.0524C75.3673 63.7591 74.5679 63.6124 73.7466 63.6124H68.8846V65.3504H69.5226V78.7704ZM73.7466 77.0544H71.2386V65.3504H73.7466C74.2306 65.3504 74.7733 65.4384 75.3746 65.6144C75.9759 65.7904 76.5406 66.0984 77.0686 66.5384C77.6113 66.9784 78.0586 67.5797 78.4106 68.3424C78.7773 69.0904 78.9606 70.0437 78.9606 71.2024C78.9606 72.3611 78.7773 73.3217 78.4106 74.0844C78.0586 74.8324 77.6113 75.4264 77.0686 75.8664C76.5406 76.3064 75.9759 76.6144 75.3746 76.7904C74.7733 76.9664 74.2306 77.0544 73.7466 77.0544ZM86.1534 78.7044H84.4154V63.6784H86.1534V78.7044ZM90.5507 78.6824H92.2887V65.4679L99.3507 78.6604H100.957V63.3704H99.2187V74.7444L93.2127 63.5464H90.0667V65.2624H90.5507V78.6824ZM115.183 78.7704L113.385 74.2384H106.82L104.997 78.8144L103.391 78.1764L108.501 65.3504H108.187V63.6124H111.025L116.789 78.1324L115.183 78.7704ZM110.11 65.9822L112.695 72.5004H107.513L110.11 65.9822ZM123.794 78.5724H125.532V65.2624H130.372V63.5464H118.954V65.2624H123.794V78.5724ZM144.011 78.7704H133.671V65.3504H133.099V63.6124H143.857V65.3504H135.387V70.3224H142.713V72.0604H135.387V77.0544H144.011V78.7704ZM154.124 78.7704H164.464V77.0544H155.84V72.0604H163.166V70.3224H155.84V65.3504H164.31V63.6124H153.552V65.3504H154.124V78.7704ZM169.654 78.6824H167.916V65.2624H167.432V63.5464H170.578L176.584 74.7444V63.3704H178.322V78.6604H176.716L169.654 65.4679V78.6824ZM185.948 78.5724H187.686V65.2624H192.526V63.5464H181.108V65.2624H185.948V78.5724ZM206.166 78.7704H195.826V65.3504H195.254V63.6124H206.012V65.3504H197.542V70.3224H204.868V72.0604H197.542V77.0544H206.166V78.7704ZM209.221 78.6824H210.959V65.2624H214.457C214.853 65.2624 215.227 65.3284 215.579 65.4604C215.931 65.5924 216.232 65.7757 216.481 66.0104C216.745 66.2304 216.95 66.4944 217.097 66.8024C217.258 67.0957 217.339 67.4111 217.339 67.7484C217.339 68.1004 217.258 68.4304 217.097 68.7384C216.95 69.0317 216.745 69.2957 216.481 69.5304C216.232 69.7504 215.931 69.9264 215.579 70.0584C215.227 70.1904 214.853 70.2564 214.457 70.2564H212.565V71.4224L217.493 78.6824L218.923 77.7144L215.029 71.9504C215.601 71.8917 216.129 71.7377 216.613 71.4884C217.097 71.2391 217.522 70.9311 217.889 70.5644C218.256 70.1831 218.542 69.7577 218.747 69.2884C218.952 68.8044 219.055 68.2911 219.055 67.7484C219.055 67.1764 218.93 66.6337 218.681 66.1204C218.446 65.6071 218.116 65.1597 217.691 64.7784C217.28 64.3971 216.796 64.0964 216.239 63.8764C215.682 63.6564 215.088 63.5464 214.457 63.5464H208.649V65.2624H209.221V78.6824ZM226.912 73.3364H223.568V78.6824H221.852V65.2624H221.28V63.5464H226.912C227.543 63.5464 228.144 63.6784 228.716 63.9424C229.303 64.2064 229.816 64.5657 230.256 65.0204C230.696 65.4604 231.048 65.9811 231.312 66.5824C231.576 67.1691 231.708 67.7851 231.708 68.4304C231.708 69.0904 231.576 69.7137 231.312 70.3004C231.048 70.8871 230.696 71.4077 230.256 71.8624C229.816 72.3171 229.303 72.6764 228.716 72.9404C228.144 73.2044 227.543 73.3364 226.912 73.3364ZM226.912 71.5984C227.279 71.5984 227.638 71.5177 227.99 71.3564C228.357 71.1951 228.687 70.9751 228.98 70.6964C229.274 70.4177 229.508 70.0877 229.684 69.7064C229.875 69.3104 229.97 68.8851 229.97 68.4304C229.97 67.9757 229.875 67.5577 229.684 67.1764C229.508 66.7951 229.274 66.4651 228.98 66.1864C228.687 65.8931 228.357 65.6657 227.99 65.5044C227.638 65.3431 227.279 65.2624 226.912 65.2624H223.568V71.5984H226.912ZM234.659 78.6824H236.397V65.2624H239.895C240.291 65.2624 240.665 65.3284 241.017 65.4604C241.369 65.5924 241.669 65.7757 241.919 66.0104C242.183 66.2304 242.388 66.4944 242.535 66.8024C242.696 67.0957 242.777 67.4111 242.777 67.7484C242.777 68.1004 242.696 68.4304 242.535 68.7384C242.388 69.0317 242.183 69.2957 241.919 69.5304C241.669 69.7504 241.369 69.9264 241.017 70.0584C240.665 70.1904 240.291 70.2564 239.895 70.2564H238.003V71.4224L242.931 78.6824L244.361 77.7144L240.467 71.9504C241.039 71.8917 241.567 71.7377 242.051 71.4884C242.535 71.2391 242.96 70.9311 243.327 70.5644C243.693 70.1831 243.979 69.7577 244.185 69.2884C244.39 68.8044 244.493 68.2911 244.493 67.7484C244.493 67.1764 244.368 66.6337 244.119 66.1204C243.884 65.6071 243.554 65.1597 243.129 64.7784C242.718 64.3971 242.234 64.0964 241.677 63.8764C241.119 63.6564 240.525 63.5464 239.895 63.5464H234.087V65.2624H234.659V78.6824ZM249.886 78.7044H248.148V63.6784H249.886V78.7044ZM258.001 78.9684C258.133 78.9831 258.258 78.9904 258.375 78.9904C258.932 78.9904 259.482 78.9097 260.025 78.7484C260.582 78.6017 261.088 78.3817 261.543 78.0884C261.998 77.7951 262.379 77.4284 262.687 76.9884C263.01 76.5484 263.222 76.0424 263.325 75.4704C263.413 74.9864 263.42 74.4731 263.347 73.9304C263.288 73.3877 263.076 72.8597 262.709 72.3464C262.357 71.8184 261.822 71.3271 261.103 70.8724C260.399 70.4177 259.446 70.0291 258.243 69.7064C257.7 69.5597 257.224 69.3471 256.813 69.0684C256.402 68.7751 256.094 68.4451 255.889 68.0784C255.61 67.5797 255.559 67.0297 255.735 66.4284C255.896 65.9151 256.19 65.5044 256.615 65.1964C257.055 64.8884 257.583 64.7197 258.199 64.6904C258.507 64.6757 258.837 64.7124 259.189 64.8004C259.556 64.8737 259.908 65.0057 260.245 65.1964C260.582 65.3871 260.898 65.6437 261.191 65.9664C261.499 66.2891 261.748 66.6924 261.939 67.1764L263.545 66.5384C263.281 65.8931 262.944 65.3431 262.533 64.8884C262.122 64.4191 261.668 64.0451 261.169 63.7664C260.685 63.4731 260.179 63.2604 259.651 63.1284C259.123 62.9964 258.617 62.9377 258.133 62.9524C257.15 62.9964 256.3 63.2824 255.581 63.8104C254.862 64.3237 254.364 65.0204 254.085 65.9004C253.748 66.9564 253.843 67.9611 254.371 68.9144C254.694 69.5011 255.148 70.0071 255.735 70.4324C256.336 70.8577 257.026 71.1731 257.803 71.3784C258.771 71.6277 259.519 71.9137 260.047 72.2364C260.59 72.5591 260.986 72.8891 261.235 73.2264C261.484 73.5637 261.624 73.9011 261.653 74.2384C261.682 74.5757 261.675 74.8837 261.631 75.1624C261.558 75.5437 261.396 75.8811 261.147 76.1744C260.898 76.4531 260.59 76.6804 260.223 76.8564C259.871 77.0324 259.482 77.1497 259.057 77.2084C258.646 77.2671 258.243 77.2744 257.847 77.2304C256.307 77.0397 255.317 76.0644 254.877 74.3044L253.205 74.7224C253.396 75.4997 253.66 76.1451 253.997 76.6584C254.334 77.1864 254.701 77.6117 255.097 77.9344C255.508 78.2571 255.933 78.4917 256.373 78.6384C256.828 78.7997 257.253 78.9024 257.649 78.9464C257.766 78.9611 257.884 78.9684 258.001 78.9684ZM277.172 78.7704H266.832V65.3504H266.26V63.6124H277.018V65.3504H268.548V70.3224H275.874V72.0604H268.548V77.0544H277.172V78.7704ZM284.341 78.9684C284.473 78.9831 284.598 78.9904 284.715 78.9904C285.272 78.9904 285.822 78.9097 286.365 78.7484C286.922 78.6017 287.428 78.3817 287.883 78.0884C288.338 77.7951 288.719 77.4284 289.027 76.9884C289.35 76.5484 289.562 76.0424 289.665 75.4704C289.753 74.9864 289.76 74.4731 289.687 73.9304C289.628 73.3877 289.416 72.8597 289.049 72.3464C288.697 71.8184 288.162 71.3271 287.443 70.8724C286.739 70.4177 285.786 70.0291 284.583 69.7064C284.04 69.5597 283.564 69.3471 283.153 69.0684C282.742 68.7751 282.434 68.4451 282.229 68.0784C281.95 67.5797 281.899 67.0297 282.075 66.4284C282.236 65.9151 282.53 65.5044 282.955 65.1964C283.395 64.8884 283.923 64.7197 284.539 64.6904C284.847 64.6757 285.177 64.7124 285.529 64.8004C285.896 64.8737 286.248 65.0057 286.585 65.1964C286.922 65.3871 287.238 65.6437 287.531 65.9664C287.839 66.2891 288.088 66.6924 288.279 67.1764L289.885 66.5384C289.621 65.8931 289.284 65.3431 288.873 64.8884C288.462 64.4191 288.008 64.0451 287.509 63.7664C287.025 63.4731 286.519 63.2604 285.991 63.1284C285.463 62.9964 284.957 62.9377 284.473 62.9524C283.49 62.9964 282.64 63.2824 281.921 63.8104C281.202 64.3237 280.704 65.0204 280.425 65.9004C280.088 66.9564 280.183 67.9611 280.711 68.9144C281.034 69.5011 281.488 70.0071 282.075 70.4324C282.676 70.8577 283.366 71.1731 284.143 71.3784C285.111 71.6277 285.859 71.9137 286.387 72.2364C286.93 72.5591 287.326 72.8891 287.575 73.2264C287.824 73.5637 287.964 73.9011 287.993 74.2384C288.022 74.5757 288.015 74.8837 287.971 75.1624C287.898 75.5437 287.736 75.8811 287.487 76.1744C287.238 76.4531 286.93 76.6804 286.563 76.8564C286.211 77.0324 285.822 77.1497 285.397 77.2084C284.986 77.2671 284.583 77.2744 284.187 77.2304C282.647 77.0397 281.657 76.0644 281.217 74.3044L279.545 74.7224C279.736 75.4997 280 76.1451 280.337 76.6584C280.674 77.1864 281.041 77.6117 281.437 77.9344C281.848 78.2571 282.273 78.4917 282.713 78.6384C283.168 78.7997 283.593 78.9024 283.989 78.9464C284.106 78.9611 284.224 78.9684 284.341 78.9684Z" fill="white"/>
</g>
<defs>
<clipPath id="clip0">
<rect width="289" height="80" fill="white"/>
</clipPath>
</defs>
</svg>
