<svg width="138" height="15" viewBox="0 0 138 15" fill="none" xmlns="http://www.w3.org/2000/svg">
<path d="M112 0.555556L112.922 0L122 14.4444L121.078 15L112 0.555556Z" fill="#DADADA"/>
<path d="M48 0.555556L48.922 0L58 14.4444L57.078 15L48 0.555556Z" fill="#DADADA"/>
<path d="M16 0.555556L16.8517 0L25.2372 14.4444L24.3856 15L16 0.555556Z" fill="#DADADA"/>
<path d="M80 0.555556L80.922 0L90 14.4444L89.078 15L80 0.555556Z" fill="#DADADA"/>
<path d="M120 0.555556L120.922 0L130 14.4444L129.078 15L120 0.555556Z" fill="#DADADA"/>
<path d="M56 0.555556L56.922 0L66 14.4444L65.078 15L56 0.555556Z" fill="#DADADA"/>
<path d="M24 0.555556L24.922 0L34 14.4444L33.078 15L24 0.555556Z" fill="#DADADA"/>
<path d="M88 0.555556L88.922 0L98 14.4444L97.078 15L88 0.555556Z" fill="#DADADA"/>
<path d="M0 0.555556L0.921986 0L10 14.4444L9.07801 15L0 0.555556Z" fill="#DADADA"/>
<path d="M128 0.555556L128.922 0L138 14.4444L137.078 15L128 0.555556Z" fill="#DADADA"/>
<path d="M64 0.555556L64.922 0L74 14.4444L73.078 15L64 0.555556Z" fill="#DADADA"/>
<path d="M32 0.555556L32.922 0L42 14.4444L41.078 15L32 0.555556Z" fill="#DADADA"/>
<path d="M96 0.555556L96.922 0L106 14.4444L105.078 15L96 0.555556Z" fill="#DADADA"/>
<path d="M8 0.555556L8.92199 0L18 14.4444L17.078 15L8 0.555556Z" fill="#DADADA"/>
<path d="M72 0.555556L72.922 0L82 14.4444L81.078 15L72 0.555556Z" fill="#DADADA"/>
<path d="M40 0.555556L40.922 0L50 14.4444L49.078 15L40 0.555556Z" fill="#DADADA"/>
<path d="M104 0.555556L104.922 0L114 14.4444L113.078 15L104 0.555556Z" fill="#DADADA"/>
</svg>
