<svg width="274" height="80" viewBox="0 0 274 80" fill="none" xmlns="http://www.w3.org/2000/svg">
<path fill-rule="evenodd" clip-rule="evenodd" d="M64.56 4.84L65.664 2.68L62.256 1L60.384 4.84H52.992V25.672H84.144C85.36 25.672 86.384 25.256 87.216 24.424C88.048 23.592 88.464 22.568 88.464 21.352V4.12H84.672V4.84H64.56ZM84.672 16.12H56.784V14.248H84.672V16.12ZM84.672 21.352C84.672 21.736 84.496 21.928 84.144 21.928H56.784V19.864H84.672V21.352ZM56.784 8.632H84.672V10.456H56.784V8.632ZM87.744 38.584L91.152 36.952L86.736 27.688L83.328 29.272L87.744 38.584ZM52.656 38.584L57.072 29.272L53.664 27.688L49.248 36.952L52.656 38.584ZM58.992 38.584H83.568V34.792H62.784V28.888H58.992V38.584ZM67.68 26.008L66 29.416L76.56 34.456L78.192 31.096L67.68 26.008ZM5.328 12.616V38.92H9.12V8.872C9.728 8.2 10.272 7.56 10.752 6.952C11.264 6.312 11.68 5.752 12 5.272C12.352 4.792 12.624 4.408 12.816 4.12C13.04 3.832 13.168 3.672 13.2 3.64L10.032 1.576L9.216 2.728C8.704 3.464 8 4.36 7.104 5.416C6.208 6.472 5.152 7.608 3.936 8.824C2.72 10.008 1.408 11.064 0 11.992L2.112 15.16C3.264 14.36 4.336 13.512 5.328 12.616ZM37.248 24.664H15.408V38.824H36.768C37.952 38.824 38.96 38.408 39.792 37.576C40.624 36.744 41.04 35.72 41.04 34.504V23.944H37.248V24.664ZM36.768 35.032H19.152V28.408H37.248V34.504C37.248 34.856 37.088 35.032 36.768 35.032ZM26.352 5.272H13.344V9.016H43.104V5.272H30.576L28.512 1.24L25.152 3.016L26.352 5.272ZM15.456 15.016H40.992V11.272H15.456V15.016ZM40.992 17.608H15.456V21.4H40.992V17.608ZM130.944 2.488L139.728 16.264L136.56 18.28L128.88 6.28H110.496V2.488H130.944ZM109.2 3.16C108.56 5.112 107.696 7.016 106.608 8.872C105.52 10.696 104.432 12.328 103.344 13.768C102.288 15.208 101.344 16.392 100.512 17.32C99.712 18.216 99.28 18.696 99.216 18.76L97.872 17.464L96.528 16.12L97.056 15.544C97.408 15.16 97.856 14.648 98.4 14.008C98.944 13.336 99.552 12.552 100.224 11.656C100.896 10.76 101.568 9.8 102.24 8.776C102.912 7.72 103.536 6.632 104.112 5.512C104.72 4.36 105.216 3.192 105.6 2.008L109.2 3.16ZM128.88 24.76L136.128 36.952L132.864 38.872L130.608 35.08L100.368 38.584V34.12L114.624 13.96L117.744 16.12L104.88 34.264L128.544 31.528L125.664 26.68L128.88 24.76ZM178.128 21.592H187.776V17.848H178.128V6.664H184.944V2.92H147.696V6.664H155.328V15.832C155.328 16.184 155.312 16.52 155.28 16.84C155.28 17.16 155.264 17.496 155.232 17.848H144.816V21.592H154.608C154.096 23.608 153.424 25.512 152.592 27.304C151.76 29.064 150.944 30.616 150.144 31.96C149.376 33.272 148.688 34.312 148.08 35.08C147.504 35.848 147.2 36.248 147.168 36.28L150.096 38.68C150.16 38.584 150.544 38.072 151.248 37.144C151.952 36.248 152.752 35.032 153.648 33.496C154.544 31.992 155.44 30.216 156.336 28.168C157.264 26.12 157.968 23.928 158.448 21.592H174.384V38.68H178.128V21.592ZM174.384 6.664V17.848H159.024C159.056 17.496 159.072 17.16 159.072 16.84C159.104 16.52 159.12 16.184 159.12 15.832V6.664H174.384ZM173.091 79.758C172.973 79.758 172.849 79.7506 172.717 79.736C172.599 79.736 172.482 79.7286 172.365 79.714C171.969 79.67 171.543 79.5673 171.089 79.406C170.649 79.2593 170.223 79.0246 169.813 78.702C169.417 78.3793 169.05 77.954 168.713 77.426C168.375 76.9126 168.111 76.2673 167.921 75.49L169.593 75.072C170.033 76.832 171.023 77.8073 172.563 77.998C172.959 78.042 173.362 78.0346 173.773 77.976C174.198 77.9173 174.587 77.8 174.939 77.624C175.305 77.448 175.613 77.2206 175.863 76.942C176.112 76.6486 176.273 76.3113 176.347 75.93C176.391 75.6513 176.398 75.3433 176.369 75.006C176.339 74.6686 176.2 74.3313 175.951 73.994C175.701 73.6566 175.305 73.3266 174.763 73.004C174.235 72.6813 173.487 72.3953 172.519 72.146C171.741 71.9406 171.052 71.6253 170.451 71.2C169.864 70.7746 169.409 70.2686 169.087 69.682C168.559 68.7286 168.463 67.724 168.801 66.668C169.079 65.788 169.578 65.0913 170.297 64.578C171.015 64.05 171.866 63.764 172.849 63.72C173.333 63.7053 173.839 63.764 174.367 63.896C174.895 64.028 175.401 64.2406 175.885 64.534C176.383 64.8126 176.838 65.1866 177.249 65.656C177.659 66.1106 177.997 66.6606 178.261 67.306L176.655 67.944C176.464 67.46 176.215 67.0566 175.907 66.734C175.613 66.4113 175.298 66.1546 174.961 65.964C174.623 65.7733 174.271 65.6413 173.905 65.568C173.553 65.48 173.223 65.4433 172.915 65.458C172.299 65.4873 171.771 65.656 171.331 65.964C170.905 66.272 170.612 66.6826 170.451 67.196C170.275 67.7973 170.326 68.3473 170.605 68.846C170.81 69.2126 171.118 69.5426 171.529 69.836C171.939 70.1146 172.416 70.3273 172.959 70.474C174.161 70.7966 175.115 71.1853 175.819 71.64C176.537 72.0946 177.073 72.586 177.425 73.114C177.791 73.6273 178.004 74.1553 178.063 74.698C178.136 75.2406 178.129 75.754 178.041 76.238C177.938 76.81 177.725 77.316 177.403 77.756C177.095 78.196 176.713 78.5626 176.259 78.856C175.804 79.1493 175.298 79.3693 174.741 79.516C174.198 79.6773 173.648 79.758 173.091 79.758ZM8.44356 79.45H6.70556V66.03H6.22156V64.314H9.36756L15.3736 75.512V64.138H17.1116V79.428H15.5056L8.44356 66.2355V79.45ZM2.30831 79.472H0.570312V64.446H2.30831V79.472ZM20.3598 79.538H22.0978V72.828H29.4238V71.09H22.0978V66.118H30.5678V64.38H19.7878V66.118H20.3598V79.538ZM39.0743 79.274C38.2383 79.274 37.4463 79.076 36.6983 78.68C35.9649 78.2986 35.3123 77.734 34.7403 76.986C34.1976 76.282 33.7796 75.49 33.4863 74.61C33.2076 73.7153 33.0683 72.7766 33.0683 71.794C33.0683 70.8113 33.2076 69.8726 33.4863 68.978C33.7796 68.0833 34.1976 67.284 34.7403 66.58C35.3123 65.832 35.9649 65.2673 36.6983 64.886C37.4463 64.49 38.2383 64.292 39.0743 64.292C39.8956 64.292 40.6729 64.49 41.4063 64.886C42.1543 65.2673 42.8143 65.832 43.3863 66.58C43.9289 67.284 44.3396 68.0833 44.6183 68.978C44.9116 69.8726 45.0583 70.8113 45.0583 71.794C45.0583 72.7766 44.9116 73.7153 44.6183 74.61C44.3396 75.49 43.9289 76.282 43.3863 76.986C42.8143 77.734 42.1543 78.2986 41.4063 78.68C40.6729 79.076 39.8956 79.274 39.0743 79.274ZM39.0743 66.03C38.4876 66.03 37.9303 66.184 37.4023 66.492C36.8889 66.7853 36.4343 67.196 36.0383 67.724C35.6569 68.2373 35.3489 68.846 35.1143 69.55C34.8943 70.254 34.7843 71.002 34.7843 71.794C34.7843 72.586 34.8943 73.334 35.1143 74.038C35.3489 74.7273 35.6569 75.336 36.0383 75.864C36.4343 76.3773 36.8889 76.7806 37.4023 77.074C37.9303 77.382 38.4876 77.536 39.0743 77.536C39.6609 77.536 40.2109 77.382 40.7243 77.074C41.2523 76.7806 41.7069 76.3773 42.0883 75.864C42.4696 75.336 42.7703 74.7273 42.9903 74.038C43.2249 73.334 43.3423 72.586 43.3423 71.794C43.3423 71.002 43.2249 70.254 42.9903 69.55C42.7703 68.846 42.4696 68.2373 42.0883 67.724C41.7069 67.196 41.2523 66.7853 40.7243 66.492C40.2109 66.184 39.6609 66.03 39.0743 66.03ZM48.1182 79.45H49.8562V66.03H53.3542C53.7502 66.03 54.1242 66.096 54.4762 66.228C54.8282 66.36 55.1288 66.5433 55.3782 66.778C55.6422 66.998 55.8475 67.262 55.9942 67.57C56.1555 67.8633 56.2362 68.1786 56.2362 68.516C56.2362 68.868 56.1555 69.198 55.9942 69.506C55.8475 69.7993 55.6422 70.0633 55.3782 70.298C55.1288 70.518 54.8282 70.694 54.4762 70.826C54.1242 70.958 53.7502 71.024 53.3542 71.024H51.4622V72.19L56.3902 79.45L57.8202 78.482L53.9262 72.718C54.4982 72.6593 55.0262 72.5053 55.5102 72.256C55.9942 72.0066 56.4195 71.6986 56.7862 71.332C57.1528 70.9506 57.4388 70.5253 57.6442 70.056C57.8495 69.572 57.9522 69.0586 57.9522 68.516C57.9522 67.944 57.8275 67.4013 57.5782 66.888C57.3435 66.3746 57.0135 65.9273 56.5882 65.546C56.1775 65.1646 55.6935 64.864 55.1362 64.644C54.5788 64.424 53.9848 64.314 53.3542 64.314H47.5462V66.03H48.1182V79.45ZM73.1354 79.538H71.3974V66.14H71.2874L67.8114 75.16H66.2714L62.8174 66.14H62.6854V79.538H60.9694V66.14H60.4854V64.402H64.0054L67.0414 72.366L70.0994 64.402H73.1354V79.538ZM85.743 75.006L87.541 79.538L89.1469 78.9L83.3829 64.38H80.545V66.118H80.8592L75.749 78.944L77.3549 79.582L79.1781 75.006H85.743ZM85.0535 73.268L82.4676 66.7498L79.8706 73.268H85.0535ZM97.8899 79.34H96.1519V66.03H91.3119V64.314H102.73V66.03H97.8899V79.34ZM106.359 79.472H108.097V64.446H106.359V79.472ZM117.643 79.274C116.807 79.274 116.015 79.076 115.267 78.68C114.533 78.2986 113.881 77.734 113.309 76.986C112.766 76.282 112.348 75.49 112.055 74.61C111.776 73.7153 111.637 72.7766 111.637 71.794C111.637 70.8113 111.776 69.8726 112.055 68.978C112.348 68.0833 112.766 67.284 113.309 66.58C113.881 65.832 114.533 65.2673 115.267 64.886C116.015 64.49 116.807 64.292 117.643 64.292C118.464 64.292 119.241 64.49 119.975 64.886C120.723 65.2673 121.383 65.832 121.955 66.58C122.497 67.284 122.908 68.0833 123.187 68.978C123.48 69.8726 123.627 70.8113 123.627 71.794C123.627 72.7766 123.48 73.7153 123.187 74.61C122.908 75.49 122.497 76.282 121.955 76.986C121.383 77.734 120.723 78.2986 119.975 78.68C119.241 79.076 118.464 79.274 117.643 79.274ZM117.643 66.03C117.056 66.03 116.499 66.184 115.971 66.492C115.457 66.7853 115.003 67.196 114.607 67.724C114.225 68.2373 113.917 68.846 113.683 69.55C113.463 70.254 113.353 71.002 113.353 71.794C113.353 72.586 113.463 73.334 113.683 74.038C113.917 74.7273 114.225 75.336 114.607 75.864C115.003 76.3773 115.457 76.7806 115.971 77.074C116.499 77.382 117.056 77.536 117.643 77.536C118.229 77.536 118.779 77.382 119.293 77.074C119.821 76.7806 120.275 76.3773 120.657 75.864C121.038 75.336 121.339 74.7273 121.559 74.038C121.793 73.334 121.911 72.586 121.911 71.794C121.911 71.002 121.793 70.254 121.559 69.55C121.339 68.846 121.038 68.2373 120.657 67.724C120.275 67.196 119.821 66.7853 119.293 66.492C118.779 66.184 118.229 66.03 117.643 66.03ZM127.083 79.45H128.821V66.2355L135.883 79.428H137.489V64.138H135.751V75.512L129.745 64.314H126.599V66.03H127.083V79.45ZM152.194 79.538H147.97V66.118H147.332V64.38H152.194C153.016 64.38 153.815 64.5266 154.592 64.82C155.384 65.0986 156.088 65.502 156.704 66.03C156.983 66.2646 157.262 66.558 157.54 66.91C157.834 67.2473 158.098 67.658 158.332 68.142C158.567 68.626 158.758 69.1833 158.904 69.814C159.066 70.4446 159.146 71.1633 159.146 71.97C159.146 72.762 159.066 73.4733 158.904 74.104C158.758 74.7346 158.567 75.292 158.332 75.776C158.098 76.26 157.834 76.678 157.54 77.03C157.262 77.382 156.983 77.6753 156.704 77.91C156.088 78.4233 155.384 78.8193 154.592 79.098C153.815 79.3913 153.016 79.538 152.194 79.538ZM149.686 77.822H152.194C152.678 77.822 153.221 77.734 153.822 77.558C154.424 77.382 154.988 77.074 155.516 76.634C156.059 76.194 156.506 75.6 156.858 74.852C157.225 74.0893 157.408 73.1286 157.408 71.97C157.408 70.8113 157.225 69.858 156.858 69.11C156.506 68.3473 156.059 67.746 155.516 67.306C154.988 66.866 154.424 66.558 153.822 66.382C153.221 66.206 152.678 66.118 152.194 66.118H149.686V77.822ZM162.863 79.472H164.601V64.446H162.863V79.472ZM184.803 78.614C185.58 79.01 186.409 79.208 187.289 79.208C188.301 79.208 189.247 78.9513 190.127 78.438C191.022 77.9246 191.777 77.1913 192.393 76.238L190.941 75.292C190.501 75.996 189.958 76.5386 189.313 76.92C188.682 77.3013 188.008 77.492 187.289 77.492C186.644 77.492 186.035 77.338 185.463 77.03C184.906 76.7366 184.414 76.326 183.989 75.798C183.564 75.27 183.226 74.6613 182.977 73.972C182.728 73.268 182.603 72.52 182.603 71.728C182.603 70.936 182.728 70.1953 182.977 69.506C183.226 68.802 183.564 68.1933 183.989 67.68C184.414 67.152 184.906 66.7413 185.463 66.448C186.035 66.14 186.644 65.986 187.289 65.986C188.008 65.986 188.682 66.1766 189.313 66.558C189.958 66.9246 190.501 67.46 190.941 68.164L192.393 67.218C191.777 66.2646 191.022 65.5313 190.127 65.018C189.247 64.5046 188.301 64.248 187.289 64.248C186.409 64.248 185.58 64.446 184.803 64.842C184.026 65.238 183.344 65.7733 182.757 66.448C182.185 67.1226 181.73 67.9146 181.393 68.824C181.056 69.7333 180.887 70.7013 180.887 71.728C180.887 72.7693 181.056 73.7446 181.393 74.654C181.73 75.5486 182.185 76.3333 182.757 77.008C183.344 77.6973 184.026 78.2326 184.803 78.614ZM204.963 79.538H195.569V66.206H195.129V64.468H197.285V77.822H204.963V79.538ZM211.56 78.68C212.308 79.076 213.1 79.274 213.936 79.274C214.757 79.274 215.534 79.076 216.268 78.68C217.016 78.2986 217.676 77.734 218.248 76.986C218.79 76.282 219.201 75.49 219.48 74.61C219.773 73.7153 219.92 72.7766 219.92 71.794C219.92 70.8113 219.773 69.8726 219.48 68.978C219.201 68.0833 218.79 67.284 218.248 66.58C217.676 65.832 217.016 65.2673 216.268 64.886C215.534 64.49 214.757 64.292 213.936 64.292C213.1 64.292 212.308 64.49 211.56 64.886C210.826 65.2673 210.174 65.832 209.602 66.58C209.059 67.284 208.641 68.0833 208.348 68.978C208.069 69.8726 207.93 70.8113 207.93 71.794C207.93 72.7766 208.069 73.7153 208.348 74.61C208.641 75.49 209.059 76.282 209.602 76.986C210.174 77.734 210.826 78.2986 211.56 78.68ZM212.264 66.492C212.792 66.184 213.349 66.03 213.936 66.03C214.522 66.03 215.072 66.184 215.586 66.492C216.114 66.7853 216.568 67.196 216.95 67.724C217.331 68.2373 217.632 68.846 217.852 69.55C218.086 70.254 218.204 71.002 218.204 71.794C218.204 72.586 218.086 73.334 217.852 74.038C217.632 74.7273 217.331 75.336 216.95 75.864C216.568 76.3773 216.114 76.7806 215.586 77.074C215.072 77.382 214.522 77.536 213.936 77.536C213.349 77.536 212.792 77.382 212.264 77.074C211.75 76.7806 211.296 76.3773 210.9 75.864C210.518 75.336 210.21 74.7273 209.976 74.038C209.756 73.334 209.646 72.586 209.646 71.794C209.646 71.002 209.756 70.254 209.976 69.55C210.21 68.846 210.518 68.2373 210.9 67.724C211.296 67.196 211.75 66.7853 212.264 66.492ZM227.467 79.758C227.35 79.758 227.225 79.7506 227.093 79.736C226.976 79.736 226.859 79.7286 226.741 79.714C226.345 79.67 225.92 79.5673 225.465 79.406C225.025 79.2593 224.6 79.0246 224.189 78.702C223.793 78.3793 223.427 77.954 223.089 77.426C222.752 76.9126 222.488 76.2673 222.297 75.49L223.969 75.072C224.409 76.832 225.399 77.8073 226.939 77.998C227.335 78.042 227.739 78.0346 228.149 77.976C228.575 77.9173 228.963 77.8 229.315 77.624C229.682 77.448 229.99 77.2206 230.239 76.942C230.489 76.6486 230.65 76.3113 230.723 75.93C230.767 75.6513 230.775 75.3433 230.745 75.006C230.716 74.6686 230.577 74.3313 230.327 73.994C230.078 73.6566 229.682 73.3266 229.139 73.004C228.611 72.6813 227.863 72.3953 226.895 72.146C226.118 71.9406 225.429 71.6253 224.827 71.2C224.241 70.7746 223.786 70.2686 223.463 69.682C222.935 68.7286 222.84 67.724 223.177 66.668C223.456 65.788 223.955 65.0913 224.673 64.578C225.392 64.05 226.243 63.764 227.225 63.72C227.709 63.7053 228.215 63.764 228.743 63.896C229.271 64.028 229.777 64.2406 230.261 64.534C230.76 64.8126 231.215 65.1866 231.625 65.656C232.036 66.1106 232.373 66.6606 232.637 67.306L231.031 67.944C230.841 67.46 230.591 67.0566 230.283 66.734C229.99 66.4113 229.675 66.1546 229.337 65.964C229 65.7733 228.648 65.6413 228.281 65.568C227.929 65.48 227.599 65.4433 227.291 65.458C226.675 65.4873 226.147 65.656 225.707 65.964C225.282 66.272 224.989 66.6826 224.827 67.196C224.651 67.7973 224.703 68.3473 224.981 68.846C225.187 69.2126 225.495 69.5426 225.905 69.836C226.316 70.1146 226.793 70.3273 227.335 70.474C228.538 70.7966 229.491 71.1853 230.195 71.64C230.914 72.0946 231.449 72.586 231.801 73.114C232.168 73.6273 232.381 74.1553 232.439 74.698C232.513 75.2406 232.505 75.754 232.417 76.238C232.315 76.81 232.102 77.316 231.779 77.756C231.471 78.196 231.09 78.5626 230.635 78.856C230.181 79.1493 229.675 79.3693 229.117 79.516C228.575 79.6773 228.025 79.758 227.467 79.758ZM238.982 79.098C239.657 79.3473 240.368 79.472 241.116 79.472C241.864 79.472 242.568 79.3473 243.228 79.098C243.903 78.8633 244.482 78.5333 244.966 78.108C245.465 77.6973 245.853 77.2133 246.132 76.656C246.425 76.084 246.572 75.4753 246.572 74.83V64.358H244.856V74.83C244.856 75.226 244.753 75.6073 244.548 75.974C244.357 76.326 244.093 76.634 243.756 76.898C243.419 77.162 243.023 77.3673 242.568 77.514C242.113 77.6753 241.629 77.756 241.116 77.756C240.603 77.756 240.119 77.6753 239.664 77.514C239.209 77.3673 238.813 77.162 238.476 76.898C238.139 76.634 237.867 76.326 237.662 75.974C237.471 75.6073 237.376 75.226 237.376 74.83V64.38H235.066V66.118H235.638V74.83C235.638 75.4753 235.777 76.084 236.056 76.656C236.349 77.2133 236.745 77.6973 237.244 78.108C237.743 78.5333 238.322 78.8633 238.982 79.098ZM251.272 79.45H249.534V66.03H248.962V64.314H254.77C255.401 64.314 255.995 64.424 256.552 64.644C257.109 64.864 257.594 65.1646 258.004 65.546C258.43 65.9273 258.759 66.3746 258.994 66.888C259.243 67.4013 259.368 67.944 259.368 68.516C259.368 69.0586 259.266 69.572 259.06 70.056C258.855 70.5253 258.569 70.9506 258.202 71.332C257.836 71.6986 257.41 72.0066 256.926 72.256C256.442 72.5053 255.914 72.6593 255.342 72.718L259.236 78.482L257.806 79.45L252.878 72.19V71.024H254.77C255.166 71.024 255.54 70.958 255.892 70.826C256.244 70.694 256.545 70.518 256.794 70.298C257.058 70.0633 257.264 69.7993 257.41 69.506C257.572 69.198 257.652 68.868 257.652 68.516C257.652 68.1786 257.572 67.8633 257.41 67.57C257.264 67.262 257.058 66.998 256.794 66.778C256.545 66.5433 256.244 66.36 255.892 66.228C255.54 66.096 255.166 66.03 254.77 66.03H251.272V79.45ZM262.693 79.538H273.033V77.822H264.409V72.828H271.735V71.09H264.409V66.118H272.879V64.38H262.121V66.118H262.693V79.538Z" fill="white"/>
</svg>
