<svg width="52" height="52" viewBox="0 0 52 52" fill="none" xmlns="http://www.w3.org/2000/svg">
<path d="M39.5243 31.9265C39.1467 31.9265 38.7787 31.7472 38.5521 31.4074C38.1888 30.8694 38.3303 30.1427 38.8683 29.7793C41.7045 27.8634 44.7625 23.5406 44.7625 19.9069C44.7625 14.0834 40.0245 9.34542 34.2058 9.34542C31.4262 9.34542 28.8024 10.4261 26.8062 12.3798C26.3484 12.8281 25.617 12.8281 25.1592 12.3798C23.1677 10.4214 20.5439 9.34542 17.7643 9.34542C11.9409 9.34542 7.20284 14.0834 7.20284 19.9069C7.20284 23.9323 9.43971 27.5519 13.0404 29.3546C13.6209 29.6425 13.8521 30.3503 13.5642 30.9308C13.2717 31.5113 12.5685 31.7425 11.9881 31.4546C7.58981 29.2508 4.85742 24.8289 4.85742 19.9069C4.85742 12.7904 10.6478 7 17.7643 7C20.794 7 23.6727 8.04765 25.9803 9.96362C28.2927 8.04293 31.1714 7 34.2011 7C41.3176 7 47.1079 12.7904 47.1079 19.9069C47.1079 24.3712 43.5827 29.4254 40.1802 31.7236C39.9868 31.8557 39.7602 31.9265 39.5243 31.9265Z" fill="#46A5EC"/>
<path d="M37.6407 35.928C36.6733 35.928 35.7672 35.5505 35.0829 34.8662L30.6044 30.3925C30.1467 29.9347 30.1467 29.1891 30.6044 28.7313C31.0622 28.2736 31.8078 28.2736 32.2656 28.7313L36.744 33.2051C37.2254 33.6864 38.0607 33.6864 38.542 33.2051C39.0375 32.7096 39.0375 31.9026 38.542 31.4071L25.6871 18.9202C25.2199 18.4672 25.2104 17.7263 25.6635 17.2591C26.1165 16.7966 26.8621 16.7824 27.3246 17.2355L40.189 29.7365C41.6095 31.157 41.6095 33.4552 40.1985 34.8662C39.5142 35.5552 38.6081 35.928 37.6407 35.928Z" fill="#46A5EC"/>
<path d="M34.6155 39.8541C33.6905 39.8541 32.7656 39.5001 32.0577 38.797L29.7736 36.5035C29.3159 36.0457 29.3159 35.3001 29.7736 34.8423C30.2314 34.3846 30.977 34.3846 31.4348 34.8423L33.7235 37.1311C34.219 37.6266 35.026 37.6266 35.5215 37.1311C35.7622 36.8905 35.8943 36.5695 35.8943 36.2345C35.8943 35.8947 35.7622 35.5738 35.5215 35.3379L29.448 29.2643C28.9902 28.8066 28.9902 28.0609 29.448 27.6032C29.9057 27.1454 30.6514 27.1454 31.1091 27.6032L37.178 33.6767C37.8622 34.361 38.2398 35.2671 38.2398 36.2345C38.2398 37.2019 37.8622 38.108 37.178 38.7923C36.4701 39.5001 35.5451 39.8541 34.6155 39.8541ZM14.5496 34.6017C13.5869 34.6017 12.6761 34.2241 11.9919 33.5446C10.5808 32.1335 10.5808 29.84 11.9919 28.429L15.8474 24.5735C17.2207 23.2049 19.5991 23.2096 20.963 24.5735C21.6472 25.2578 22.0248 26.1638 22.0248 27.1313C22.0248 28.0987 21.6472 29.0048 20.963 29.689L17.1074 33.5446C16.4231 34.2289 15.5171 34.6017 14.5496 34.6017ZM18.4052 25.8571C18.0654 25.8571 17.7492 25.9892 17.5085 26.2299L13.653 30.0854C13.1575 30.5809 13.1575 31.3879 13.653 31.8834C14.1344 32.3648 14.9696 32.3648 15.451 31.8834L19.3065 28.0279C19.5472 27.7872 19.6794 27.4663 19.6794 27.1313C19.6794 26.7962 19.5472 26.4753 19.3065 26.2346C19.0611 25.9892 18.745 25.8571 18.4052 25.8571Z" fill="#46A5EC"/>
<path d="M18.0047 38.0611C17.0373 38.0611 16.1312 37.6836 15.4469 37.004C14.0359 35.593 14.0359 33.2995 15.4469 31.8885L19.3025 28.0329C20.6758 26.6644 23.0542 26.6691 24.4228 28.0329C25.8338 29.444 25.8338 31.7375 24.4228 33.1485L20.5625 37.004C19.8829 37.6836 18.9721 38.0611 18.0047 38.0611ZM21.8603 29.3166C21.5205 29.3166 21.2043 29.4487 20.9636 29.6894L17.1081 33.5449C16.6126 34.0404 16.6126 34.8474 17.1081 35.3429C17.5894 35.8243 18.4247 35.8243 18.9061 35.3429L22.7663 31.4874C23.2619 30.9919 23.2619 30.1849 22.7663 29.6894C22.5209 29.4487 22.2048 29.3166 21.8603 29.3166Z" fill="#46A5EC"/>
<path d="M21.4637 41.5209C20.501 41.5209 19.5902 41.1434 18.9059 40.4638C17.4949 39.0528 17.4949 36.7546 18.9059 35.3436L22.7662 31.488C24.13 30.1242 26.5085 30.1195 27.8817 31.488C29.2928 32.899 29.2928 35.1926 27.8817 36.6036L24.0215 40.4591C23.3372 41.1434 22.4311 41.5209 21.4637 41.5209ZM25.3192 32.7716C24.9795 32.7716 24.6633 32.9038 24.4226 33.1444L20.5623 37C20.0668 37.4955 20.0668 38.3025 20.5623 38.798C21.0437 39.2793 21.879 39.2793 22.3603 38.798L26.2206 34.9424C26.7161 34.4469 26.7161 33.64 26.2206 33.1444C25.9799 32.9085 25.659 32.7716 25.3192 32.7716Z" fill="#46A5EC"/>
<path d="M24.9183 44.9748C23.9508 44.9748 23.0448 44.5973 22.3605 43.9177C20.9495 42.5067 20.9495 40.2132 22.3605 38.8021L26.2207 34.9466C27.5846 33.5828 29.9677 33.578 31.3363 34.9466C32.7473 36.3576 32.7473 38.6558 31.3363 40.0622L27.4808 43.9177C26.7965 44.602 25.8857 44.9748 24.9183 44.9748ZM28.7785 36.2302C28.4387 36.2302 28.1226 36.3623 27.8819 36.603L24.0216 40.4586C23.5261 40.9541 23.5261 41.761 24.0216 42.2566C24.503 42.7379 25.3383 42.7332 25.8196 42.2566L29.6752 38.401C30.1707 37.9055 30.1707 37.0985 29.6752 36.603C29.4345 36.3623 29.1183 36.2302 28.7785 36.2302ZM20.5106 23.649C19.5432 23.649 18.6371 23.2714 17.9528 22.5919C16.5418 21.1808 16.5418 18.8873 17.9528 17.4763L25.1825 10.6949C25.6545 10.2513 26.3954 10.2749 26.839 10.7468C27.2826 11.2187 27.259 11.9644 26.787 12.4079L19.5809 19.1563C19.1137 19.6235 19.1137 20.4305 19.6092 20.926C20.0906 21.4074 20.9259 21.4074 21.4072 20.926L25.7441 17.1884C26.2349 16.7684 26.9758 16.8204 27.4005 17.3111C27.8205 17.8019 27.7686 18.5428 27.2778 18.9676L23.0023 22.6485C22.3841 23.2714 21.478 23.649 20.5106 23.649Z" fill="#46A5EC"/>
</svg>
