<svg width="20" height="20" viewBox="0 0 20 20" fill="none" xmlns="http://www.w3.org/2000/svg">
<path d="M15.9496 1.3999H4.04961C3.10961 1.3999 2.34961 2.1599 2.34961 3.0999V16.9099C2.34961 17.8499 3.10961 18.6099 4.04961 18.6099H15.9496C16.8896 18.6099 17.6496 17.8499 17.6496 16.9099V3.0999C17.6496 2.1599 16.8796 1.3999 15.9496 1.3999ZM16.3496 16.9099C16.3496 17.1299 16.1696 17.3099 15.9496 17.3099H4.04961C3.82961 17.3099 3.64961 17.1299 3.64961 16.9099V3.0999C3.64961 2.8799 3.82961 2.6999 4.04961 2.6999H15.9496C16.1696 2.6999 16.3496 2.8799 16.3496 3.0999V16.9099Z" fill="#3E3A39"/>
<path d="M13.9996 13.7502H5.99961C5.63961 13.7502 5.34961 14.0402 5.34961 14.4002C5.34961 14.7602 5.63961 15.0502 5.99961 15.0502H13.9996C14.3596 15.0502 14.6496 14.7602 14.6496 14.4002C14.6496 14.0402 14.3596 13.7502 13.9996 13.7502ZM13.9996 10.7002H5.99961C5.63961 10.7002 5.34961 10.9902 5.34961 11.3502C5.34961 11.7102 5.63961 12.0002 5.99961 12.0002H13.9996C14.3596 12.0002 14.6496 11.7102 14.6496 11.3502C14.6496 10.9902 14.3596 10.7002 13.9996 10.7002Z" fill="#3E3A39"/>
<path d="M5.99961 7.5998H9.86961C10.2296 7.5998 10.5196 7.3098 10.5196 6.9498C10.5196 6.5898 10.2296 6.2998 9.86961 6.2998H5.99961C5.63961 6.2998 5.34961 6.5898 5.34961 6.9498C5.34961 7.3098 5.63961 7.5998 5.99961 7.5998Z" fill="#FA7268"/>
</svg>
