<svg width="227" height="80" viewBox="0 0 227 80" fill="none" xmlns="http://www.w3.org/2000/svg">
<g clip-path="url(#clip0)">
<path fill-rule="evenodd" clip-rule="evenodd" d="M89.752 37.624C90.584 36.792 91 35.768 91 34.552V3.112H87.256V4.12H63.928V7.912H87.256V34.552C87.256 34.712 87.208 34.84 87.112 34.936C87.016 35.064 86.888 35.128 86.728 35.128H82.696V38.872H86.728C87.912 38.872 88.92 38.456 89.752 37.624ZM54.04 4.36H50.248V38.872H54.04V4.36ZM62.824 6.712L58.696 1L55.624 3.208L59.752 8.92L62.824 6.712ZM79.624 29.128V14.44H83.416V10.648H57.256V14.44H60.808V30.28L56.584 30.52L56.824 34.264L75.88 33.16V36.76H79.624V32.92L84.184 32.632L83.992 28.888L79.624 29.128ZM64.6 21.304H75.88V23.896H64.6V21.304ZM75.88 27.64V29.368L64.6 30.04V27.64H75.88ZM64.6 14.44H75.88V17.512H64.6V14.44ZM31.624 14.488V7.048H36.136C37.032 7.048 37.912 7 38.776 6.904C39.672 6.776 40.456 6.648 41.128 6.52C41.8 6.392 42.344 6.28 42.76 6.184C43.208 6.056 43.448 5.992 43.48 5.992L42.424 2.344L41.848 2.488C41.496 2.584 41.016 2.696 40.408 2.824C39.832 2.92 39.16 3.016 38.392 3.112C37.656 3.208 36.904 3.256 36.136 3.256H27.832V16.888C27.832 19.832 27.688 22.568 27.4 25.096C27.112 27.624 26.792 29.816 26.44 31.672C26.12 33.528 25.816 34.984 25.528 36.04C25.272 37.096 25.144 37.64 25.144 37.672L28.744 38.776C28.776 38.68 28.936 38.104 29.224 37.048C29.512 35.992 29.816 34.552 30.136 32.728C30.488 30.904 30.808 28.76 31.096 26.296C31.384 23.832 31.56 21.144 31.624 18.232H37.048V38.2H40.84V18.232H43.288V14.488H31.624ZM24.424 4.264H15.256L13.528 1.096L10.216 2.872L10.984 4.264H2.536V8.056H24.424V4.264ZM25.816 13.864H20.68L22.744 10.024L19.432 8.2L16.408 13.864H10.984L7.96 8.2L4.6 10.024L6.664 13.864H1.288V17.608H25.816V13.864ZM8.872 26.968C9.032 26.04 9.144 25.352 9.208 24.904H11.8V34.408C11.8 34.76 11.624 34.936 11.272 34.936H7.288V38.728H11.272C12.456 38.728 13.464 38.312 14.296 37.48C15.16 36.648 15.592 35.624 15.592 34.408V24.904H24.472V21.112H15.592V18.424H11.8V21.112H2.488V24.904H5.416C5.352 25.384 5.24 26.024 5.08 26.824C4.92 27.624 4.664 28.536 4.312 29.56C3.992 30.552 3.56 31.624 3.016 32.776C2.472 33.928 1.8 35.096 1 36.28L4.12 38.392C5.112 36.952 5.912 35.528 6.52 34.12C7.16 32.712 7.672 31.4 8.056 30.184C8.44 28.968 8.712 27.896 8.872 26.968ZM21.16 38.536L24.808 37.528L21.496 25.48L17.848 26.488L21.16 38.536ZM120.52 1.624V9.832H134.536V8.776H138.328V26.44C138.328 27.624 137.912 28.648 137.08 29.512C136.248 30.344 135.224 30.76 134.008 30.76H120.52V38.584H116.728V30.76H98.92V9.832H116.728V1.624H120.52ZM116.728 26.968V13.576H102.712V26.968H116.728ZM120.52 13.576V26.968H134.008C134.36 26.968 134.536 26.792 134.536 26.44V13.576H120.52ZM146.824 30.52C146.472 32.024 146.04 33.704 145.528 35.56L149.176 36.568C149.72 34.616 150.168 32.872 150.52 31.336C150.904 29.768 151.224 28.312 151.48 26.968C151.736 25.592 151.928 24.28 152.056 23.032C152.216 21.784 152.328 20.52 152.392 19.24C152.456 17.928 152.488 16.552 152.488 15.112C152.52 13.64 152.536 12.008 152.536 10.216H148.792C148.792 11.976 148.776 13.56 148.744 14.968C148.744 16.376 148.712 17.72 148.648 19C148.584 20.248 148.472 21.464 148.312 22.648C148.184 23.832 147.992 25.064 147.736 26.344C147.512 27.624 147.208 29.016 146.824 30.52ZM182.776 31.336C183.16 32.872 183.624 34.616 184.168 36.568L187.816 35.56C187.272 33.704 186.824 32.024 186.472 30.52C186.12 29.016 185.816 27.624 185.56 26.344C185.304 25.064 185.112 23.832 184.984 22.648C184.856 21.464 184.76 20.248 184.696 19C184.632 17.752 184.584 16.424 184.552 15.016V10.216H180.76V15.112C180.792 16.552 180.84 17.928 180.904 19.24C181 20.52 181.112 21.784 181.24 23.032C181.368 24.28 181.56 25.592 181.816 26.968C182.072 28.312 182.392 29.768 182.776 31.336ZM178.168 37.576C179 36.744 179.416 35.72 179.416 34.504V28.84H175.624V34.504C175.624 34.664 175.576 34.792 175.48 34.888C175.384 35.016 175.256 35.08 175.096 35.08H160.168V6.376H156.376V38.824H175.096C176.312 38.824 177.336 38.408 178.168 37.576ZM170.248 18.664L173.848 17.464L168.28 1.288L164.68 2.536L170.248 18.664ZM8.96309 79.3061H7.22509V65.8861H6.74109V64.1701H9.88709L15.8931 75.3681V63.9941H17.6311V79.2841H16.0251L8.96309 66.0916V79.3061ZM2.82784 79.3281H1.08984V64.3021H2.82784V79.3281ZM20.8794 79.3941H22.6174V72.6841H29.9434V70.9461H22.6174V65.9741H31.0874V64.2361H20.3074V65.9741H20.8794V79.3941ZM39.5938 79.1301C38.7578 79.1301 37.9658 78.9321 37.2178 78.5361C36.4845 78.1548 35.8318 77.5901 35.2598 76.8421C34.7171 76.1381 34.2991 75.3461 34.0058 74.4661C33.7271 73.5715 33.5878 72.6328 33.5878 71.6501C33.5878 70.6675 33.7271 69.7288 34.0058 68.8341C34.2991 67.9395 34.7171 67.1401 35.2598 66.4361C35.8318 65.6881 36.4845 65.1235 37.2178 64.7421C37.9658 64.3461 38.7578 64.1481 39.5938 64.1481C40.4151 64.1481 41.1925 64.3461 41.9258 64.7421C42.6738 65.1235 43.3338 65.6881 43.9058 66.4361C44.4485 67.1401 44.8591 67.9395 45.1378 68.8341C45.4311 69.7288 45.5778 70.6675 45.5778 71.6501C45.5778 72.6328 45.4311 73.5715 45.1378 74.4661C44.8591 75.3461 44.4485 76.1381 43.9058 76.8421C43.3338 77.5901 42.6738 78.1548 41.9258 78.5361C41.1925 78.9321 40.4151 79.1301 39.5938 79.1301ZM39.5938 65.8861C39.0071 65.8861 38.4498 66.0401 37.9218 66.3481C37.4085 66.6415 36.9538 67.0521 36.5578 67.5801C36.1765 68.0935 35.8685 68.7021 35.6338 69.4061C35.4138 70.1101 35.3038 70.8581 35.3038 71.6501C35.3038 72.4421 35.4138 73.1901 35.6338 73.8941C35.8685 74.5835 36.1765 75.1921 36.5578 75.7201C36.9538 76.2335 37.4085 76.6368 37.9218 76.9301C38.4498 77.2381 39.0071 77.3921 39.5938 77.3921C40.1805 77.3921 40.7305 77.2381 41.2438 76.9301C41.7718 76.6368 42.2265 76.2335 42.6078 75.7201C42.9891 75.1921 43.2898 74.5835 43.5098 73.8941C43.7445 73.1901 43.8618 72.4421 43.8618 71.6501C43.8618 70.8581 43.7445 70.1101 43.5098 69.4061C43.2898 68.7021 42.9891 68.0935 42.6078 67.5801C42.2265 67.0521 41.7718 66.6415 41.2438 66.3481C40.7305 66.0401 40.1805 65.8861 39.5938 65.8861ZM48.6377 79.3061H50.3757V65.8861H53.8737C54.2697 65.8861 54.6437 65.9521 54.9957 66.0841C55.3477 66.2161 55.6484 66.3995 55.8977 66.6341C56.1617 66.8541 56.367 67.1181 56.5137 67.4261C56.675 67.7195 56.7557 68.0348 56.7557 68.3721C56.7557 68.7241 56.675 69.0541 56.5137 69.3621C56.367 69.6555 56.1617 69.9195 55.8977 70.1541C55.6484 70.3741 55.3477 70.5501 54.9957 70.6821C54.6437 70.8141 54.2697 70.8801 53.8737 70.8801H51.9817V72.0461L56.9097 79.3061L58.3397 78.3381L54.4457 72.5741C55.0177 72.5155 55.5457 72.3615 56.0297 72.1121C56.5137 71.8628 56.939 71.5548 57.3057 71.1881C57.6724 70.8068 57.9584 70.3815 58.1637 69.9121C58.369 69.4281 58.4717 68.9148 58.4717 68.3721C58.4717 67.8001 58.347 67.2575 58.0977 66.7441C57.863 66.2308 57.533 65.7835 57.1077 65.4021C56.697 65.0208 56.213 64.7201 55.6557 64.5001C55.0984 64.2801 54.5044 64.1701 53.8737 64.1701H48.0657V65.8861H48.6377V79.3061ZM73.655 79.3941H71.917V65.9961H71.807L68.331 75.0161H66.791L63.337 65.9961H63.2049V79.3941H61.489V65.9961H61.005V64.2581H64.525L67.561 72.2221L70.6189 64.2581H73.655V79.3941ZM86.2625 74.8621L88.0605 79.3941L89.6665 78.7561L83.9025 64.2361H81.0645V65.9741H81.3787L76.2685 78.8001L77.8745 79.4381L79.6977 74.8621H86.2625ZM85.573 73.1241L82.9871 66.606L80.3901 73.1241H85.573ZM98.4094 79.1961H96.6714V65.8861H91.8314V64.1701H103.249V65.8861H98.4094V79.1961ZM106.879 79.3281H108.617V64.3021H106.879V79.3281ZM118.162 79.1301C117.326 79.1301 116.534 78.9321 115.786 78.5361C115.053 78.1548 114.4 77.5901 113.828 76.8421C113.285 76.1381 112.867 75.3461 112.574 74.4661C112.295 73.5715 112.156 72.6328 112.156 71.6501C112.156 70.6675 112.295 69.7288 112.574 68.8341C112.867 67.9395 113.285 67.1401 113.828 66.4361C114.4 65.6881 115.053 65.1235 115.786 64.7421C116.534 64.3461 117.326 64.1481 118.162 64.1481C118.983 64.1481 119.761 64.3461 120.494 64.7421C121.242 65.1235 121.902 65.6881 122.474 66.4361C123.017 67.1401 123.427 67.9395 123.706 68.8341C123.999 69.7288 124.146 70.6675 124.146 71.6501C124.146 72.6328 123.999 73.5715 123.706 74.4661C123.427 75.3461 123.017 76.1381 122.474 76.8421C121.902 77.5901 121.242 78.1548 120.494 78.5361C119.761 78.9321 118.983 79.1301 118.162 79.1301ZM118.162 65.8861C117.575 65.8861 117.018 66.0401 116.49 66.3481C115.977 66.6415 115.522 67.0521 115.126 67.5801C114.745 68.0935 114.437 68.7021 114.202 69.4061C113.982 70.1101 113.872 70.8581 113.872 71.6501C113.872 72.4421 113.982 73.1901 114.202 73.8941C114.437 74.5835 114.745 75.1921 115.126 75.7201C115.522 76.2335 115.977 76.6368 116.49 76.9301C117.018 77.2381 117.575 77.3921 118.162 77.3921C118.749 77.3921 119.299 77.2381 119.812 76.9301C120.34 76.6368 120.795 76.2335 121.176 75.7201C121.557 75.1921 121.858 74.5835 122.078 73.8941C122.313 73.1901 122.43 72.4421 122.43 71.6501C122.43 70.8581 122.313 70.1101 122.078 69.4061C121.858 68.7021 121.557 68.0935 121.176 67.5801C120.795 67.0521 120.34 66.6415 119.812 66.3481C119.299 66.0401 118.749 65.8861 118.162 65.8861ZM127.602 79.3061H129.34V66.0916L136.402 79.2841H138.008V63.9941H136.27V75.3681L130.264 64.1701H127.118V65.8861H127.602V79.3061ZM154.078 79.0641C153.198 79.0641 152.369 78.8661 151.592 78.4701C150.815 78.0888 150.133 77.5535 149.546 76.8641C148.974 76.1895 148.519 75.4048 148.182 74.5101C147.845 73.6008 147.676 72.6255 147.676 71.5841C147.676 70.5575 147.845 69.5895 148.182 68.6801C148.519 67.7708 148.974 66.9788 149.546 66.3041C150.133 65.6295 150.815 65.0941 151.592 64.6981C152.369 64.3021 153.198 64.1041 154.078 64.1041C155.09 64.1041 156.036 64.3608 156.916 64.8741C157.811 65.3875 158.566 66.1208 159.182 67.0741L157.73 68.0201C157.29 67.3161 156.747 66.7808 156.102 66.4141C155.471 66.0328 154.797 65.8421 154.078 65.8421C153.433 65.8421 152.824 65.9961 152.252 66.3041C151.695 66.5975 151.203 67.0081 150.778 67.5361C150.353 68.0495 150.015 68.6581 149.766 69.3621C149.517 70.0515 149.392 70.7921 149.392 71.5841C149.392 72.3761 149.517 73.1241 149.766 73.8281C150.015 74.5175 150.353 75.1261 150.778 75.6541C151.203 76.1821 151.695 76.5928 152.252 76.8861C152.824 77.1941 153.433 77.3481 154.078 77.3481C154.797 77.3481 155.471 77.1575 156.102 76.7761C156.747 76.3948 157.29 75.8521 157.73 75.1481L159.182 76.0941C158.566 77.0475 157.811 77.7808 156.916 78.2941C156.036 78.8075 155.09 79.0641 154.078 79.0641ZM162.666 79.3941H173.006V77.6781H164.382V72.6841H171.708V70.9461H164.382V65.9741H172.852V64.2361H162.094V65.9741H162.666V79.3941ZM178.196 79.3061H176.458V65.8861H175.974V64.1701H179.12L185.126 75.3681V63.9941H186.864V79.2841H185.258L178.196 66.0916V79.3061ZM194.49 79.1961H196.228V65.8861H201.068V64.1701H189.65V65.8861H194.49V79.1961ZM205.643 79.3061H203.905V65.8861H203.333V64.1701H209.141C209.772 64.1701 210.366 64.2801 210.923 64.5001C211.481 64.7201 211.965 65.0208 212.375 65.4021C212.801 65.7835 213.131 66.2308 213.365 66.7441C213.615 67.2575 213.739 67.8001 213.739 68.3721C213.739 68.9148 213.637 69.4281 213.431 69.9121C213.226 70.3815 212.94 70.8068 212.573 71.1881C212.207 71.5548 211.781 71.8628 211.297 72.1121C210.813 72.3615 210.285 72.5155 209.713 72.5741L213.607 78.3381L212.177 79.3061L207.249 72.0461V70.8801H209.141C209.537 70.8801 209.911 70.8141 210.263 70.6821C210.615 70.5501 210.916 70.3741 211.165 70.1541C211.429 69.9195 211.635 69.6555 211.781 69.3621C211.943 69.0541 212.023 68.7241 212.023 68.3721C212.023 68.0348 211.943 67.7195 211.781 67.4261C211.635 67.1181 211.429 66.8541 211.165 66.6341C210.916 66.3995 210.615 66.2161 210.263 66.0841C209.911 65.9521 209.537 65.8861 209.141 65.8861H205.643V79.3061ZM217.065 79.3941H227.405V77.6781H218.781V72.6841H226.107V70.9461H218.781V65.9741H227.251V64.2361H216.493V65.9741H217.065V79.3941Z" fill="white"/>
</g>
<defs>
<clipPath id="clip0">
<rect width="227" height="80" fill="white"/>
</clipPath>
</defs>
</svg>
