<svg width="189" height="80" viewBox="0 0 189 80" fill="none" xmlns="http://www.w3.org/2000/svg">
<g clip-path="url(#clip0)">
<path fill-rule="evenodd" clip-rule="evenodd" d="M44.4362 34.12V31.336H40.6442V34.12C40.6442 34.28 40.5962 34.408 40.5002 34.504C40.4042 34.632 40.2762 34.696 40.1162 34.696H31.1882V27.784H34.3562C35.5722 27.784 36.5962 27.368 37.4282 26.536C38.2602 25.672 38.6762 24.648 38.6762 23.464V15.016H34.9322V15.784H10.3082V27.784H16.9802C16.3082 28.808 15.3962 29.704 14.2442 30.472C13.1242 31.24 11.9242 31.88 10.6442 32.392C9.39621 32.936 8.18021 33.368 6.99621 33.688C5.81221 34.008 4.85221 34.232 4.11621 34.36L4.40421 36.232L4.74021 38.104C4.83621 38.104 5.23621 38.024 5.94021 37.864C6.67621 37.736 7.55621 37.512 8.58021 37.192C9.63621 36.872 10.7882 36.456 12.0362 35.944C13.3162 35.432 14.5482 34.792 15.7322 34.024C16.9162 33.256 17.9882 32.36 18.9482 31.336C19.9402 30.312 20.6922 29.128 21.2042 27.784H27.3962V38.44H40.1162C41.3002 38.44 42.3082 38.024 43.1402 37.192C44.0042 36.36 44.4362 35.336 44.4362 34.12ZM34.9322 23.464C34.9322 23.816 34.7402 23.992 34.3562 23.992H14.1002V19.576H34.9322V23.464ZM5.22021 17.608H8.96421V12.376H40.0682V17.608H43.8122V7.912H40.0682V8.584H35.4122L39.7322 3.736L36.9002 1.24L30.3722 8.584H25.8122V1H22.0682V8.584H16.4042L17.1722 7.912L11.2682 1.24L8.43621 3.736L12.7082 8.584H5.22021V17.608ZM90.8042 13.432H93.0602V9.688H90.8042V2.92H87.0122V3.592H79.6202V1.528H75.8762V3.592H66.4202V7.384H75.8762V9.688H65.0282V13.432H75.8762V14.92H66.2762V18.712H75.8762V21.256H65.6522V25H75.8762V27.4H63.8282V31.144H75.8762V33.352H79.6202V31.144H92.3402V27.4H79.6202V25H90.3722V21.256H79.6202V18.712H85.9562C86.6282 18.712 87.2522 18.584 87.8282 18.328C88.4362 18.072 88.9482 17.736 89.3642 17.32C89.8122 16.872 90.1642 16.36 90.4202 15.784C90.6762 15.176 90.8042 14.536 90.8042 13.864V13.432ZM87.0122 9.688H79.6202V7.384H87.0122V9.688ZM79.6202 13.432H87.0122V13.864C87.0122 14.152 86.9002 14.408 86.6762 14.632C86.4842 14.824 86.2442 14.92 85.9562 14.92H79.6202V13.432ZM54.3722 31.192C53.2842 32.632 52.0202 33.928 50.5802 35.08L52.9322 38.008C54.1802 36.984 55.3162 35.896 56.3402 34.744C56.7242 35.032 57.2042 35.352 57.7802 35.704C58.3882 36.056 59.0762 36.392 59.8442 36.712C60.6442 37.064 61.5242 37.352 62.4842 37.576C63.4442 37.8 64.4522 37.912 65.5082 37.912H92.8202V34.12H65.5082C64.7082 34.12 63.9562 34.024 63.2522 33.832C62.5482 33.672 61.8922 33.464 61.2842 33.208C60.7082 32.984 60.1962 32.728 59.7482 32.44C59.3002 32.184 58.9322 31.96 58.6442 31.768C59.4442 30.584 60.1322 29.448 60.7082 28.36C61.3162 27.24 61.8122 26.232 62.1962 25.336C62.6122 24.44 62.9162 23.72 63.1082 23.176C63.3322 22.6 63.4602 22.28 63.4922 22.216L63.5882 21.928V17.464H57.4922L63.5882 10.216V2.536H51.8282V6.28H59.8442V8.824L52.1162 17.944V21.208H59.8442V21.304C59.6842 21.688 59.3802 22.408 58.9322 23.464C58.5162 24.52 57.9242 25.72 57.1562 27.064C56.3882 28.376 55.4602 29.752 54.3722 31.192ZM135.78 1H139.572V33.592C139.572 34.776 139.156 35.784 138.324 36.616C137.492 37.48 136.468 37.912 135.252 37.912H99.8762V1.864H135.78V1ZM135.78 5.656H103.668V34.12H135.252C135.604 34.12 135.78 33.944 135.78 33.592V5.656ZM105.156 28.6C105.188 28.6 105.556 28.424 106.26 28.072C106.996 27.688 107.828 27.16 108.756 26.488C109.684 25.784 110.58 24.952 111.444 23.992C112.34 23 112.964 21.896 113.316 20.68V19.576H106.116V15.832H133.332V19.576H126.084V28.504H129.828C130.18 28.504 130.356 28.328 130.356 27.976V25.912H134.148V27.976C134.148 29.16 133.716 30.184 132.852 31.048C132.02 31.88 131.012 32.296 129.828 32.296H122.292V19.576H117.108V21.16L117.06 21.352C116.612 23.048 115.844 24.552 114.756 25.864C113.668 27.176 112.532 28.296 111.348 29.224C110.196 30.12 109.156 30.808 108.228 31.288C107.332 31.768 106.836 32.024 106.74 32.056L105.156 28.6ZM130.02 12.328H108.756V8.536H130.02V12.328ZM146.532 34.504L147.636 38.104L161.412 33.832L160.26 30.184L155.604 31.672V12.664H160.452V8.92H155.604V3.64H151.812V8.92H146.964V12.664H151.812V32.824L146.532 34.504ZM189.54 30.472H185.748V34.024C185.748 34.184 185.7 34.312 185.604 34.408C185.508 34.536 185.38 34.6 185.22 34.6H168.276V14.344L174.228 13.48V29.416H178.02V12.952L184.26 12.04V23.944C184.26 24.296 184.084 24.472 183.732 24.472H180.612V28.264H183.732C184.916 28.264 185.924 27.848 186.756 27.016C187.62 26.152 188.052 25.128 188.052 23.944V7.672L178.02 9.112V1.24H174.228V9.64L168.276 10.504V4.072H164.484V11.08L161.028 11.56L161.556 15.304L164.484 14.872V38.344H185.22C186.436 38.344 187.46 37.928 188.292 37.096C189.124 36.264 189.54 35.24 189.54 34.024V30.472ZM126.022 79.0163C126.154 79.0309 126.278 79.0382 126.396 79.0382C126.953 79.0382 127.503 78.9576 128.046 78.7962C128.603 78.6496 129.109 78.4296 129.564 78.1362C130.018 77.8429 130.4 77.4762 130.708 77.0362C131.03 76.5962 131.243 76.0902 131.346 75.5182C131.434 75.0342 131.441 74.5209 131.368 73.9782C131.309 73.4356 131.096 72.9076 130.73 72.3942C130.378 71.8662 129.842 71.3749 129.124 70.9202C128.42 70.4656 127.466 70.0769 126.264 69.7542C125.721 69.6076 125.244 69.3949 124.834 69.1162C124.423 68.8229 124.115 68.4929 123.91 68.1262C123.631 67.6276 123.58 67.0776 123.756 66.4762C123.917 65.9629 124.21 65.5522 124.636 65.2442C125.076 64.9362 125.604 64.7676 126.22 64.7382C126.528 64.7236 126.858 64.7602 127.21 64.8482C127.576 64.9216 127.928 65.0536 128.266 65.2442C128.603 65.4349 128.918 65.6916 129.212 66.0142C129.52 66.3369 129.769 66.7402 129.96 67.2242L131.566 66.5863C131.302 65.9409 130.964 65.3909 130.554 64.9362C130.143 64.4669 129.688 64.0929 129.19 63.8142C128.706 63.5209 128.2 63.3082 127.672 63.1762C127.144 63.0442 126.638 62.9856 126.154 63.0002C125.171 63.0442 124.32 63.3302 123.602 63.8582C122.883 64.3716 122.384 65.0682 122.106 65.9482C121.768 67.0042 121.864 68.0089 122.392 68.9622C122.714 69.5489 123.169 70.0549 123.756 70.4802C124.357 70.9056 125.046 71.2209 125.824 71.4262C126.792 71.6756 127.54 71.9616 128.068 72.2842C128.61 72.6069 129.006 72.9369 129.256 73.2742C129.505 73.6116 129.644 73.9489 129.674 74.2862C129.703 74.6236 129.696 74.9316 129.652 75.2103C129.578 75.5916 129.417 75.9289 129.168 76.2222C128.918 76.5009 128.61 76.7282 128.244 76.9043C127.892 77.0802 127.503 77.1976 127.078 77.2562C126.667 77.3149 126.264 77.3223 125.868 77.2782C124.328 77.0876 123.338 76.1122 122.898 74.3522L121.226 74.7702C121.416 75.5476 121.68 76.1929 122.018 76.7062C122.355 77.2342 122.722 77.6596 123.118 77.9822C123.528 78.3049 123.954 78.5396 124.394 78.6862C124.848 78.8476 125.274 78.9502 125.67 78.9942C125.787 79.0089 125.904 79.0163 126.022 79.0163ZM79.0532 78.7302H77.3152V65.3102H76.8312V63.5942H79.9772L85.9832 74.7922V63.4182H87.7213V78.7082H86.1152L79.0532 65.5157V78.7302ZM6.632 73.3842H3.288V78.7302H1.572V65.3102H1V63.5942H6.632C7.26267 63.5942 7.864 63.7262 8.436 63.9902C9.02267 64.2542 9.536 64.6136 9.976 65.0682C10.416 65.5082 10.768 66.0289 11.032 66.6302C11.296 67.2169 11.428 67.8329 11.428 68.4782C11.428 69.1382 11.296 69.7616 11.032 70.3482C10.768 70.9349 10.416 71.4556 9.976 71.9102C9.536 72.3649 9.02267 72.7242 8.436 72.9883C7.864 73.2523 7.26267 73.3842 6.632 73.3842ZM6.632 71.6462C6.99867 71.6462 7.358 71.5656 7.71 71.4042C8.07667 71.2429 8.40667 71.0229 8.7 70.7442C8.99333 70.4656 9.228 70.1356 9.404 69.7542C9.59467 69.3582 9.69 68.9329 9.69 68.4782C9.69 68.0236 9.59467 67.6056 9.404 67.2242C9.228 66.8429 8.99333 66.5129 8.7 66.2342C8.40667 65.9409 8.07667 65.7136 7.71 65.5522C7.358 65.3909 6.99867 65.3102 6.632 65.3102H3.288V71.6462H6.632ZM25.3342 78.8182L23.5363 74.2862H16.9714L15.1482 78.8622L13.5422 78.2243L18.6524 65.3982H18.3382V63.6602H21.1762L26.9402 78.1802L25.3342 78.8182ZM20.2609 66.0301L22.8468 72.5482H17.6639L20.2609 66.0301ZM29.5892 78.7302H31.3272V65.3102H34.8252C35.2212 65.3102 35.5952 65.3762 35.9472 65.5082C36.2992 65.6402 36.5998 65.8236 36.8492 66.0583C37.1132 66.2782 37.3185 66.5422 37.4652 66.8503C37.6265 67.1436 37.7072 67.4589 37.7072 67.7962C37.7072 68.1482 37.6265 68.4782 37.4652 68.7862C37.3185 69.0796 37.1132 69.3436 36.8492 69.5782C36.5998 69.7982 36.2992 69.9743 35.9472 70.1062C35.5952 70.2383 35.2212 70.3042 34.8252 70.3042H32.9332V71.4702L37.8612 78.7302L39.2912 77.7622L35.3972 71.9982C35.9692 71.9396 36.4972 71.7856 36.9812 71.5362C37.4652 71.2869 37.8905 70.9789 38.2572 70.6122C38.6238 70.2309 38.9098 69.8056 39.1152 69.3363C39.3205 68.8522 39.4232 68.3389 39.4232 67.7962C39.4232 67.2243 39.2985 66.6816 39.0492 66.1682C38.8145 65.6549 38.4845 65.2076 38.0592 64.8262C37.6485 64.4449 37.1645 64.1442 36.6072 63.9242C36.0498 63.7042 35.4558 63.5942 34.8252 63.5942H29.0172V65.3102H29.5892V78.7302ZM48.3804 78.6202H46.6424V65.3102H41.8024V63.5942H53.2204V65.3102H48.3804V78.6202ZM60.5459 78.6202H62.2839V72.1742L66.9919 65.3102H67.6079V63.5942H66.0899L61.4039 70.3923L56.7399 63.5942H55.2439V65.3102H55.8379L60.5679 72.1742H60.5459V78.6202ZM91.4535 78.8182H101.794V77.1022H93.1695V72.1082H100.496V70.3702H93.1695V65.3982H101.64V63.6602H90.8815V65.3982H91.4535V78.8182ZM116.641 78.7523H114.595L111.603 69.6442L108.633 78.7523H106.587L104.783 65.3542H104.123V63.6382H106.301L107.885 75.4522L110.877 66.3442H112.351L115.343 75.4522L116.927 63.6382H119.105V65.3542H118.423L116.641 78.7523Z" fill="white"/>
</g>
<defs>
<clipPath id="clip0">
<rect width="189" height="80" fill="white"/>
</clipPath>
</defs>
</svg>
