<svg width="52" height="52" viewBox="0 0 52 52" fill="none" xmlns="http://www.w3.org/2000/svg">
<path d="M19.8656 15.0426C19.8656 15.4984 20.0467 15.9356 20.369 16.258C20.6914 16.5803 21.1286 16.7614 21.5844 16.7614C22.0403 16.7614 22.4775 16.5803 22.7998 16.258C23.1222 15.9356 23.3033 15.4984 23.3033 15.0426C23.3033 14.5867 23.1222 14.1495 22.7998 13.8272C22.4775 13.5048 22.0403 13.3237 21.5844 13.3237C21.1286 13.3237 20.6914 13.5048 20.369 13.8272C20.0467 14.1495 19.8656 14.5867 19.8656 15.0426ZM26.3975 15.0426C26.3975 15.4984 26.5786 15.9356 26.901 16.258C27.2233 16.5803 27.6605 16.7614 28.1164 16.7614C28.5722 16.7614 29.0094 16.5803 29.3318 16.258C29.6541 15.9356 29.8352 15.4984 29.8352 15.0426C29.8352 14.5867 29.6541 14.1495 29.3318 13.8272C29.0094 13.5048 28.5722 13.3237 28.1164 13.3237C27.6605 13.3237 27.2233 13.5048 26.901 13.8272C26.5786 14.1495 26.3975 14.5867 26.3975 15.0426ZM32.9295 15.0426C32.9295 15.4984 33.1105 15.9356 33.4329 16.258C33.7552 16.5803 34.1924 16.7614 34.6483 16.7614C35.1042 16.7614 35.5414 16.5803 35.8637 16.258C36.1861 15.9356 36.3671 15.4984 36.3671 15.0426C36.3671 14.5867 36.1861 14.1495 35.8637 13.8272C35.5414 13.5048 35.1042 13.3237 34.6483 13.3237C34.1924 13.3237 33.7552 13.5048 33.4329 13.8272C33.1105 14.1495 32.9295 14.5867 32.9295 15.0426ZM12.8465 33.9438C10.0979 33.9438 7.86191 31.7078 7.86191 28.9588C7.86191 26.2101 10.0983 23.9738 12.8466 23.9738C15.5952 23.9738 17.8315 26.2102 17.8315 28.9588C17.8315 31.7074 15.5952 33.9438 12.8465 33.9438ZM12.8465 25.6926C11.0457 25.6926 9.5808 27.158 9.5808 28.9588C9.5808 30.7596 11.0457 32.2249 12.8465 32.2249C14.6473 32.2249 16.1127 30.7596 16.1127 28.9588C16.1127 27.1579 14.6474 25.6926 12.8466 25.6926H12.8465ZM21.4276 39.2985C20.9039 39.5381 20.4081 39.8344 19.9491 40.182C19.6947 39.665 19.3846 39.1774 19.0242 38.7279C17.575 36.9128 15.344 35.7491 12.8465 35.7491C8.48702 35.7491 4.93955 39.2951 4.93955 43.6557C4.93955 43.833 4.94818 44.0097 4.96021 44.1854H3.23609C3.22681 44.009 3.22168 43.8324 3.2207 43.6557C3.2207 38.3481 7.53848 34.0299 12.8469 34.0299C15.9683 34.0299 18.7463 35.5238 20.5065 37.832C20.8567 38.2923 21.165 38.7831 21.4276 39.2985ZM24.7065 36.78C21.9575 36.78 19.7215 34.5436 19.7215 31.7951C19.7215 29.046 21.9575 26.8101 24.7065 26.8101C27.4551 26.8101 29.6915 29.046 29.6915 31.7951C29.6915 34.5437 27.4551 36.78 24.7065 36.78ZM24.7065 28.5289C22.9057 28.5289 21.4404 29.9942 21.4404 31.7951C21.4404 33.5959 22.9057 35.0612 24.7065 35.0612C26.5073 35.0612 27.9727 33.5959 27.9727 31.7951C27.9727 29.9942 26.5074 28.5288 24.7065 28.5288L24.7065 28.5289Z" fill="#46A5EC"/>
<path d="M34.3325 46.4922C34.3325 46.6694 34.3254 46.8461 34.3171 47.0218H32.593C32.605 46.8461 32.6137 46.669 32.6137 46.4922C32.6137 43.7868 31.2488 41.3955 29.1708 39.9704C28.69 39.639 28.1733 39.363 27.6306 39.1475C26.7009 38.7751 25.7085 38.5843 24.7071 38.5852C22.9891 38.5839 21.3179 39.1448 19.9485 40.1822C18.0352 41.6261 16.7993 43.9173 16.7993 46.4922C16.7993 46.6694 16.8079 46.8461 16.8181 47.0218H15.0955C15.0853 46.8454 15.0801 46.6688 15.0801 46.4922C15.0801 43.3069 16.6342 40.4797 19.0232 38.7277C20.6698 37.5155 22.6616 36.863 24.7063 36.866C26.1927 36.866 27.6005 37.2045 28.859 37.8081C29.4057 38.072 29.9266 38.3863 30.4149 38.7469C32.789 40.5 34.3325 43.3193 34.3325 46.4922ZM35.2988 35.248C32.5501 35.248 30.3138 33.012 30.3138 30.2629C30.3138 27.5143 32.5501 25.2783 35.2988 25.2783C38.0478 25.2783 40.2838 27.5143 40.2838 30.2629C40.2838 33.0115 38.0478 35.248 35.2988 35.248ZM35.2988 26.9972C33.4983 26.9972 32.0326 28.4625 32.0326 30.2629C32.0326 32.0638 33.4979 33.5291 35.2988 33.5291C37.1 33.5291 38.5649 32.0638 38.5649 30.2629C38.5649 28.4625 37.1 26.9972 35.2988 26.9972Z" fill="#46A5EC"/>
<path d="M44.926 44.9582C44.926 45.1369 44.9204 45.314 44.9103 45.4893H43.188C43.1982 45.314 43.2072 45.1365 43.2072 44.9582C43.2072 40.5987 39.6608 37.0512 35.3002 37.0512C33.5278 37.049 31.8068 37.6465 30.4171 38.7463C29.9574 39.106 29.5397 39.5164 29.1722 39.9698C28.6913 39.6384 28.1747 39.3624 27.632 39.1469C27.999 38.6631 28.4105 38.2147 28.8611 37.8076C30.5679 36.2708 32.8265 35.3324 35.3002 35.3324C40.6082 35.332 44.926 39.6502 44.926 44.9582ZM35.6522 8.625H19.608C19.2898 8.625 18.9787 8.65923 18.6797 8.72763C16.7544 9.15267 15.3105 10.8715 15.3105 12.9221V17.1623C15.3105 19.533 17.2392 21.4598 19.608 21.4598H23.3243L28.9714 25.6779L28.4557 24.2134L27.488 21.4598H35.6526C37.7036 21.4598 39.4239 20.0159 39.8467 18.0906C39.9155 17.7916 39.9498 17.4805 39.9498 17.1623V12.9225C39.9498 10.5537 38.0214 8.625 35.6522 8.625H35.6522ZM35.6522 19.7414H19.608C18.9245 19.7406 18.2691 19.4687 17.7858 18.9853C17.3024 18.502 17.0305 17.8467 17.0297 17.1631V12.9225C17.0301 12.2388 17.3019 11.5832 17.7853 11.0998C18.2688 10.6164 18.9243 10.3446 19.608 10.3442H35.6521C36.3357 10.3451 36.9909 10.617 37.4743 11.1003C37.9576 11.5837 38.2295 12.2389 38.2304 12.9225V17.1627C38.2304 17.5306 38.1533 17.8777 38.0141 18.1941C37.8135 18.6537 37.4833 19.0449 37.0637 19.3197C36.6442 19.5946 36.1537 19.7411 35.6521 19.7414H35.6522Z" fill="#46A5EC"/>
<path d="M31.7214 20.9486L31.2967 19.742H28.6613L30.9612 21.4609H31.9011L31.7214 20.9486ZM38.9183 5.35986H22.8737C20.8227 5.35986 19.1039 6.80373 18.6793 8.72869C18.61 9.03336 18.5754 9.34489 18.5762 9.65733V10.5611C18.9012 10.4181 19.2525 10.3445 19.6076 10.3448H20.295V9.65738C20.295 9.29104 20.3722 8.94238 20.5117 8.62601C20.7123 8.16645 21.0427 7.77537 21.4622 7.50063C21.8817 7.22589 22.3722 7.07941 22.8737 7.07911H38.9179C39.6014 7.08 40.2567 7.35192 40.74 7.83525C41.2233 8.31858 41.4953 8.97385 41.4961 9.65738V13.8976C41.4958 14.399 41.3493 14.8895 41.0746 15.3089C40.7998 15.7284 40.4087 16.0586 39.9492 16.2592C39.6242 16.4023 39.273 16.4761 38.9179 16.4759H38.2304V17.1635C38.2304 17.5313 38.1533 17.8785 38.0141 18.1947H38.9179C39.2361 18.1947 39.5471 18.1602 39.8462 18.0917C41.7715 17.6689 43.2153 15.9482 43.2153 13.8977V9.65738C43.2153 7.28859 41.287 5.35991 38.9182 5.35991L38.9183 5.35986Z" fill="#46A5EC"/>
</svg>
