<svg width="52" height="52" viewBox="0 0 52 52" fill="none" xmlns="http://www.w3.org/2000/svg">
<path d="M40.1451 8H11.9707C10.5562 8 9.41016 9.15005 9.41016 10.5606V41.3315C9.41016 42.7461 10.5602 43.8921 11.9707 43.8921H40.1451C41.5596 43.8921 42.7056 42.7421 42.7056 41.3315V10.5606C42.7056 9.15005 41.5556 8 40.1451 8ZM28.901 10.5646H33.6094V17.0802L32.3912 16.3148C31.702 15.8821 30.8084 15.8821 30.1191 16.3148L28.901 17.0802V10.5646ZM40.141 41.3275H11.9747V10.5646H26.3364V17.8576C26.3364 18.635 26.7571 19.3523 27.4384 19.7249C28.1196 20.1016 28.9491 20.0776 29.6062 19.6648L31.2532 18.631L32.9001 19.6648C33.2447 19.8812 33.6414 19.9934 34.0341 19.9934C34.3908 19.9934 34.7434 19.9053 35.068 19.7289C35.7492 19.3523 36.17 18.635 36.17 17.8616V10.5686H40.137L40.141 41.3275Z" fill="#46A5EC"/>
<path d="M33.5708 31.0815H18.544C17.8347 31.0815 17.2617 31.6546 17.2617 32.3638C17.2617 33.0731 17.8347 33.6461 18.544 33.6461H33.5708C34.2801 33.6461 34.8531 33.0731 34.8531 32.3638C34.8531 31.6546 34.2801 31.0815 33.5708 31.0815Z" fill="#46A5EC"/>
</svg>
