<svg width="52" height="52" viewBox="0 0 52 52" fill="none" xmlns="http://www.w3.org/2000/svg">
<path d="M42.8596 13.8584C42.2283 13.8584 41.7193 14.37 41.7193 15.0013V42.2078L26.2882 35.7099C26.0037 35.5902 25.6769 35.5902 25.3924 35.7124L10.2857 42.2402V11.3906C10.2857 10.2352 11.2265 9.29449 12.3843 9.29449H38.6949C39.3288 9.29449 39.8378 8.78295 39.8378 8.15162C39.8378 7.52033 39.3288 7.00879 38.6949 7.00879H12.3843C9.96633 7.00879 8 8.97507 8 11.3906V43.9795C8 44.3637 8.19465 44.7181 8.51651 44.9326C8.70615 45.0599 8.92575 45.1198 9.14283 45.1198C9.30005 45.1198 9.45226 45.0899 9.59696 45.03L25.8515 38.0056L42.4154 44.9925C42.7648 45.1373 43.1765 45.1048 43.4934 44.8952C43.8103 44.6756 44 44.3213 44 43.9345V15.0013C44 14.37 43.4935 13.8584 42.8596 13.8584Z" fill="#46A5EC"/>
<path d="M35.7969 20.9775C35.6398 20.5034 35.2031 20.1865 34.7065 20.1865H28.8849L27.0858 14.6494C26.9361 14.1778 26.4969 13.8584 26.0003 13.8584C25.5062 13.8584 25.0671 14.1778 24.9124 14.6469L23.1133 20.1865H17.2917C16.7951 20.1865 16.3584 20.5034 16.2037 20.9775C16.0515 21.4467 16.2212 21.9632 16.6204 22.2552L21.3291 25.6762L19.5325 31.2134C19.3802 31.6824 19.5474 32.199 19.9467 32.4885C20.3509 32.7804 20.8899 32.7804 21.2917 32.4885L26.0003 29.0674L30.7065 32.486C30.9111 32.6357 31.1457 32.7055 31.3827 32.7055C31.6223 32.7055 31.8543 32.6357 32.0564 32.486C32.4557 32.1965 32.6229 31.6824 32.4707 31.2109L30.6691 25.6762L35.3802 22.2552C35.7795 21.9632 35.9442 21.4467 35.7969 20.9775ZM28.6529 24.3113C28.2536 24.6057 28.0864 25.1198 28.2361 25.5914L29.2043 28.5708L26.6691 26.7292C26.4747 26.5881 26.2406 26.5121 26.0003 26.5122C25.7593 26.5117 25.5242 26.5877 25.3291 26.7292L22.7914 28.5733L23.7595 25.5939C23.8348 25.3643 23.8355 25.1169 23.7615 24.887C23.6876 24.657 23.5427 24.4564 23.3478 24.3138L20.8101 22.4722H23.9442C24.4408 22.4722 24.8774 22.1553 25.0296 21.6812L26.0003 18.7018L26.9685 21.6812C27.1207 22.1529 27.5624 22.4722 28.059 22.4722H31.1906L28.6529 24.3113Z" fill="#46A5EC"/>
</svg>
